<?xml version="1.0" encoding="UTF-8"?>
<!--Generator: Apple Native CoreSVG 228-->
<!DOCTYPE svg
PUBLIC "-//W3C//DTD SVG 1.1//EN"
       "http://www.w3.org/Graphics/SVG/1.1/DTD/svg11.dtd">
<svg version="1.1" xmlns="http://www.w3.org/2000/svg" xmlns:xlink="http://www.w3.org/1999/xlink" width="3300" height="2200">
 <!--glyph: "", point size: 100.0, font version: "19.0d5e1internal", template writer version: "101"-->
 <style>.monochrome-0 {fill:#FFFFFF;opacity:0.0;-sfsymbols-clear-behind:true}
.monochrome-1 {fill:#000000}
.monochrome-2 {fill:#FFFFFF;opacity:0.0;-sfsymbols-clear-behind:true}

.multicolor-0:tintColor {fill:#007AFF;opacity:0.0;-sfsymbols-clear-behind:true}
.multicolor-1:systemGreenColor {fill:#28CD41}
.multicolor-2:white {fill:#FFFFFF}

.hierarchical-0:primary {fill:#212121;opacity:0.0;-sfsymbols-clear-behind:true}
.hierarchical-1:primary {fill:#212121}
.hierarchical-2:primary {fill:#212121;opacity:0.0;-sfsymbols-clear-behind:true}

.SFSymbolsPreview28CD41 {fill:#28CD41;opacity:1.0}
.SFSymbolsPreviewFFFFFF {fill:#FFFFFF;opacity:1.0}
</style>
 <g id="Notes">
  <rect height="2200" id="artboard" style="fill:white;opacity:1" width="3300" x="0" y="0"/>
  <line style="fill:none;stroke:black;opacity:1;stroke-width:0.5;" x1="263" x2="3036" y1="292" y2="292"/>
  <text style="stroke:none;fill:black;font-family:sans-serif;font-size:13;font-weight:bold;" transform="matrix(1 0 0 1 263 322)">Weight/Scale Variations</text>
  <text style="stroke:none;fill:black;font-family:sans-serif;font-size:13;text-anchor:middle;" transform="matrix(1 0 0 1 559.711 322)">Ultralight</text>
  <text style="stroke:none;fill:black;font-family:sans-serif;font-size:13;text-anchor:middle;" transform="matrix(1 0 0 1 856.422 322)">Thin</text>
  <text style="stroke:none;fill:black;font-family:sans-serif;font-size:13;text-anchor:middle;" transform="matrix(1 0 0 1 1153.13 322)">Light</text>
  <text style="stroke:none;fill:black;font-family:sans-serif;font-size:13;text-anchor:middle;" transform="matrix(1 0 0 1 1449.84 322)">Regular</text>
  <text style="stroke:none;fill:black;font-family:sans-serif;font-size:13;text-anchor:middle;" transform="matrix(1 0 0 1 1746.56 322)">Medium</text>
  <text style="stroke:none;fill:black;font-family:sans-serif;font-size:13;text-anchor:middle;" transform="matrix(1 0 0 1 2043.27 322)">Semibold</text>
  <text style="stroke:none;fill:black;font-family:sans-serif;font-size:13;text-anchor:middle;" transform="matrix(1 0 0 1 2339.98 322)">Bold</text>
  <text style="stroke:none;fill:black;font-family:sans-serif;font-size:13;text-anchor:middle;" transform="matrix(1 0 0 1 2636.69 322)">Heavy</text>
  <text style="stroke:none;fill:black;font-family:sans-serif;font-size:13;text-anchor:middle;" transform="matrix(1 0 0 1 2933.4 322)">Black</text>
  <line style="fill:none;stroke:black;opacity:1;stroke-width:0.5;" x1="263" x2="3036" y1="1903" y2="1903"/>
  <g transform="matrix(1 0 0 1 263 1933)">
   <path d="M9.24805 0.830078C13.5547 0.830078 17.1387-2.74414 17.1387-7.05078C17.1387-11.3574 13.5449-14.9316 9.23828-14.9316C4.94141-14.9316 1.36719-11.3574 1.36719-7.05078C1.36719-2.74414 4.95117 0.830078 9.24805 0.830078ZM9.24805-0.654297C5.70312-0.654297 2.87109-3.49609 2.87109-7.05078C2.87109-10.6055 5.69336-13.4473 9.23828-13.4473C12.793-13.4473 15.6445-10.6055 15.6445-7.05078C15.6445-3.49609 12.8027-0.654297 9.24805-0.654297ZM5.6543-7.05078C5.6543-6.62109 5.95703-6.32812 6.40625-6.32812L8.50586-6.32812L8.50586-4.20898C8.50586-3.76953 8.79883-3.4668 9.22852-3.4668C9.67773-3.4668 9.9707-3.76953 9.9707-4.20898L9.9707-6.32812L12.0898-6.32812C12.5293-6.32812 12.832-6.62109 12.832-7.05078C12.832-7.49023 12.5293-7.79297 12.0898-7.79297L9.9707-7.79297L9.9707-9.90234C9.9707-10.3516 9.67773-10.6543 9.22852-10.6543C8.79883-10.6543 8.50586-10.3516 8.50586-9.90234L8.50586-7.79297L6.40625-7.79297C5.95703-7.79297 5.6543-7.49023 5.6543-7.05078Z"/>
  </g>
  <g transform="matrix(1 0 0 1 281.867 1933)">
   <path d="M11.709 2.91016C17.1582 2.91016 21.6699-1.61133 21.6699-7.05078C21.6699-12.5 17.1484-17.0117 11.6992-17.0117C6.25977-17.0117 1.74805-12.5 1.74805-7.05078C1.74805-1.61133 6.26953 2.91016 11.709 2.91016ZM11.709 1.25C7.09961 1.25 3.41797-2.44141 3.41797-7.05078C3.41797-11.6602 7.08984-15.3516 11.6992-15.3516C16.3086-15.3516 20.0098-11.6602 20.0098-7.05078C20.0098-2.44141 16.3184 1.25 11.709 1.25ZM7.17773-7.05078C7.17773-6.57227 7.50977-6.25 8.00781-6.25L10.8789-6.25L10.8789-3.36914C10.8789-2.88086 11.2109-2.53906 11.6895-2.53906C12.1777-2.53906 12.5195-2.87109 12.5195-3.36914L12.5195-6.25L15.4004-6.25C15.8887-6.25 16.2305-6.57227 16.2305-7.05078C16.2305-7.53906 15.8887-7.88086 15.4004-7.88086L12.5195-7.88086L12.5195-10.752C12.5195-11.25 12.1777-11.5918 11.6895-11.5918C11.2109-11.5918 10.8789-11.25 10.8789-10.752L10.8789-7.88086L8.00781-7.88086C7.50977-7.88086 7.17773-7.53906 7.17773-7.05078Z"/>
  </g>
  <g transform="matrix(1 0 0 1 305.646 1933)">
   <path d="M14.9707 5.66406C21.9336 5.66406 27.6953-0.0976562 27.6953-7.05078C27.6953-14.0137 21.9238-19.7754 14.9609-19.7754C8.00781-19.7754 2.25586-14.0137 2.25586-7.05078C2.25586-0.0976562 8.01758 5.66406 14.9707 5.66406ZM14.9707 3.84766C8.93555 3.84766 4.08203-1.01562 4.08203-7.05078C4.08203-13.0957 8.92578-17.9492 14.9609-17.9492C21.0059-17.9492 25.8691-13.0957 25.8691-7.05078C25.8691-1.01562 21.0156 3.84766 14.9707 3.84766ZM9.19922-7.05078C9.19922-6.5332 9.57031-6.17188 10.1172-6.17188L14.0625-6.17188L14.0625-2.2168C14.0625-1.67969 14.4336-1.29883 14.9512-1.29883C15.4883-1.29883 15.8594-1.66992 15.8594-2.2168L15.8594-6.17188L19.8145-6.17188C20.3516-6.17188 20.7324-6.5332 20.7324-7.05078C20.7324-7.59766 20.3613-7.96875 19.8145-7.96875L15.8594-7.96875L15.8594-11.9141C15.8594-12.4609 15.4883-12.8418 14.9512-12.8418C14.4336-12.8418 14.0625-12.4609 14.0625-11.9141L14.0625-7.96875L10.1172-7.96875C9.57031-7.96875 9.19922-7.59766 9.19922-7.05078Z"/>
  </g>
  <text style="stroke:none;fill:black;font-family:sans-serif;font-size:13;font-weight:bold;" transform="matrix(1 0 0 1 263 1953)">Design Variations</text>
  <text style="stroke:none;fill:black;font-family:sans-serif;font-size:13;" transform="matrix(1 0 0 1 263 1971)">Symbols are supported in up to nine weights and three scales.</text>
  <text style="stroke:none;fill:black;font-family:sans-serif;font-size:13;" transform="matrix(1 0 0 1 263 1989)">For optimal layout with text and other symbols, vertically align</text>
  <text style="stroke:none;fill:black;font-family:sans-serif;font-size:13;" transform="matrix(1 0 0 1 263 2007)">symbols with the adjacent text.</text>
  <line style="fill:none;stroke:#00AEEF;stroke-width:0.5;opacity:1.0;" x1="776" x2="776" y1="1919" y2="1933"/>
  <g transform="matrix(1 0 0 1 776 1933)">
   <path d="M3.31055 0.15625C3.82812 0.15625 4.08203-0.0390625 4.26758-0.585938L5.52734-4.0332L11.2891-4.0332L12.5488-0.585938C12.7344-0.0390625 12.9883 0.15625 13.4961 0.15625C14.0137 0.15625 14.3457-0.15625 14.3457-0.644531C14.3457-0.810547 14.3164-0.966797 14.2383-1.17188L9.6582-13.3691C9.43359-13.9648 9.0332-14.2676 8.4082-14.2676C7.80273-14.2676 7.39258-13.9746 7.17773-13.3789L2.59766-1.16211C2.51953-0.957031 2.49023-0.800781 2.49023-0.634766C2.49023-0.146484 2.80273 0.15625 3.31055 0.15625ZM6.00586-5.51758L8.37891-12.0898L8.42773-12.0898L10.8008-5.51758Z"/>
  </g>
  <line style="fill:none;stroke:#00AEEF;stroke-width:0.5;opacity:1.0;" x1="793.197" x2="793.197" y1="1919" y2="1933"/>
  <text style="stroke:none;fill:black;font-family:sans-serif;font-size:13;font-weight:bold;" transform="matrix(1 0 0 1 776 1953)">Margins</text>
  <text style="stroke:none;fill:black;font-family:sans-serif;font-size:13;" transform="matrix(1 0 0 1 776 1971)">Leading and trailing margins on the left and right side of each symbol</text>
  <text style="stroke:none;fill:black;font-family:sans-serif;font-size:13;" transform="matrix(1 0 0 1 776 1989)">can be adjusted by modifying the x-location of the margin guidelines.</text>
  <text style="stroke:none;fill:black;font-family:sans-serif;font-size:13;" transform="matrix(1 0 0 1 776 2007)">Modifications are automatically applied proportionally to all</text>
  <text style="stroke:none;fill:black;font-family:sans-serif;font-size:13;" transform="matrix(1 0 0 1 776 2025)">scales and weights.</text>
  <g transform="matrix(1 0 0 1 1289 1933)">
   <path d="M2.8418 1.86523L4.54102 3.57422C5.40039 4.44336 6.38672 4.38477 7.31445 3.35938L18.0078-8.42773L17.041-9.4043L6.42578 2.27539C6.07422 2.67578 5.74219 2.77344 5.27344 2.30469L4.10156 1.14258C3.63281 0.683594 3.74023 0.341797 4.14062-0.0195312L15.6152-10.8203L14.6387-11.7871L3.04688-0.898438C2.06055 0.0195312 1.98242 0.996094 2.8418 1.86523ZM9.25781-16.3281C8.83789-15.918 8.80859-15.3418 9.04297-14.9512C9.27734-14.5898 9.73633-14.3555 10.3809-14.5215C11.8457-14.8633 13.3691-14.9219 14.7949-13.9844L14.209-12.5293C13.8672-11.6992 14.043-11.1133 14.5801-10.5664L16.875-8.25195C17.3633-7.76367 17.7734-7.74414 18.3398-7.8418L19.4043-8.03711L20.0684-7.36328L20.0293-6.80664C19.9902-6.30859 20.1172-5.92773 20.6055-5.44922L21.3672-4.70703C21.8457-4.22852 22.4609-4.19922 22.9297-4.66797L25.8398-7.58789C26.3086-8.05664 26.2891-8.65234 25.8105-9.13086L25.0391-9.89258C24.5605-10.3711 24.1895-10.5273 23.7109-10.4883L23.1348-10.4395L22.4902-11.0742L22.7344-12.1973C22.8613-12.7637 22.7051-13.2031 22.1191-13.7891L19.9219-15.9766C16.582-19.2969 12.1484-19.2188 9.25781-16.3281ZM10.752-15.957C13.1836-17.7344 16.4746-17.4316 18.7012-15.2051L21.1328-12.793C21.3672-12.5586 21.4062-12.373 21.3379-12.0312L21.0156-10.5469L22.5195-9.0625L23.5059-9.12109C23.7598-9.13086 23.8379-9.11133 24.0332-8.91602L24.6094-8.33984L22.168-5.89844L21.5918-6.47461C21.3965-6.66992 21.3672-6.74805 21.377-7.01172L21.4453-7.98828L19.9512-9.47266L18.4277-9.21875C18.1055-9.15039 17.959-9.17969 17.7148-9.41406L15.7129-11.416C15.459-11.6504 15.4297-11.8164 15.5859-12.1875L16.4648-14.2773C14.9023-15.7324 12.8711-16.3574 10.8398-15.7617C10.6836-15.7227 10.625-15.8496 10.752-15.957Z"/>
  </g>
  <text style="stroke:none;fill:black;font-family:sans-serif;font-size:13;font-weight:bold;" transform="matrix(1 0 0 1 1289 1953)">Exporting</text>
  <text style="stroke:none;fill:black;font-family:sans-serif;font-size:13;" transform="matrix(1 0 0 1 1289 1971)">Symbols should be outlined when exporting to ensure the</text>
  <text style="stroke:none;fill:black;font-family:sans-serif;font-size:13;" transform="matrix(1 0 0 1 1289 1989)">design is preserved when submitting to Xcode.</text>
  <text id="template-version" style="stroke:none;fill:black;font-family:sans-serif;font-size:13;text-anchor:end;" transform="matrix(1 0 0 1 3036 1933)">Template v.4.0</text>
  <text style="stroke:none;fill:black;font-family:sans-serif;font-size:13;text-anchor:end;" transform="matrix(1 0 0 1 3036 1951)">Requires Xcode 14 or greater</text>
  <text id="descriptive-name" style="stroke:none;fill:black;font-family:sans-serif;font-size:13;text-anchor:end;" transform="matrix(1 0 0 1 3036 1969)">Generated from badge.plus</text>
  <text style="stroke:none;fill:black;font-family:sans-serif;font-size:13;text-anchor:end;" transform="matrix(1 0 0 1 3036 1987)">Typeset at 100 points</text>
  <text style="stroke:none;fill:black;font-family:sans-serif;font-size:13;" transform="matrix(1 0 0 1 263 726)">Small</text>
  <text style="stroke:none;fill:black;font-family:sans-serif;font-size:13;" transform="matrix(1 0 0 1 263 1156)">Medium</text>
  <text style="stroke:none;fill:black;font-family:sans-serif;font-size:13;" transform="matrix(1 0 0 1 263 1586)">Large</text>
 </g>
 <g id="Guides">
  <g id="H-reference" style="fill:#27AAE1;stroke:none;" transform="matrix(1 0 0 1 339 696)">
   <path d="M0.993654 0L3.63775 0L29.3281-67.1323L30.0303-67.1323L30.0303-70.459L28.1226-70.459ZM11.6885-24.4799L46.9815-24.4799L46.2315-26.7285L12.4385-26.7285ZM55.1196 0L57.7637 0L30.6382-70.459L29.4326-70.459L29.4326-67.1323Z"/>
  </g>
  <line id="Baseline-S" style="fill:none;stroke:#27AAE1;opacity:1;stroke-width:0.5;" x1="263" x2="3036" y1="696" y2="696"/>
  <line id="Capline-S" style="fill:none;stroke:#27AAE1;opacity:1;stroke-width:0.5;" x1="263" x2="3036" y1="625.541" y2="625.541"/>
  <g id="H-reference" style="fill:#27AAE1;stroke:none;" transform="matrix(1 0 0 1 339 1126)">
   <path d="M0.993654 0L3.63775 0L29.3281-67.1323L30.0303-67.1323L30.0303-70.459L28.1226-70.459ZM11.6885-24.4799L46.9815-24.4799L46.2315-26.7285L12.4385-26.7285ZM55.1196 0L57.7637 0L30.6382-70.459L29.4326-70.459L29.4326-67.1323Z"/>
  </g>
  <line id="Baseline-M" style="fill:none;stroke:#27AAE1;opacity:1;stroke-width:0.5;" x1="263" x2="3036" y1="1126" y2="1126"/>
  <line id="Capline-M" style="fill:none;stroke:#27AAE1;opacity:1;stroke-width:0.5;" x1="263" x2="3036" y1="1055.54" y2="1055.54"/>
  <g id="H-reference" style="fill:#27AAE1;stroke:none;" transform="matrix(1 0 0 1 339 1556)">
   <path d="M0.993654 0L3.63775 0L29.3281-67.1323L30.0303-67.1323L30.0303-70.459L28.1226-70.459ZM11.6885-24.4799L46.9815-24.4799L46.2315-26.7285L12.4385-26.7285ZM55.1196 0L57.7637 0L30.6382-70.459L29.4326-70.459L29.4326-67.1323Z"/>
  </g>
  <line id="Baseline-L" style="fill:none;stroke:#27AAE1;opacity:1;stroke-width:0.5;" x1="263" x2="3036" y1="1556" y2="1556"/>
  <line id="Capline-L" style="fill:none;stroke:#27AAE1;opacity:1;stroke-width:0.5;" x1="263" x2="3036" y1="1485.54" y2="1485.54"/>
  <line id="left-margin-Ultralight-S" style="fill:none;stroke:#00AEEF;stroke-width:0.5;opacity:1.0;" x1="508.101" x2="508.101" y1="600.785" y2="720.121"/>
  <line id="right-margin-Ultralight-S" style="fill:none;stroke:#00AEEF;stroke-width:0.5;opacity:1.0;" x1="611.321" x2="611.321" y1="600.785" y2="720.121"/>
  <line id="left-margin-Regular-S" style="fill:none;stroke:#00AEEF;stroke-width:0.5;opacity:1.0;" x1="1396.3" x2="1396.3" y1="600.785" y2="720.121"/>
  <line id="right-margin-Regular-S" style="fill:none;stroke:#00AEEF;stroke-width:0.5;opacity:1.0;" x1="1503.38" x2="1503.38" y1="600.785" y2="720.121"/>
  <line id="left-margin-Black-S" style="fill:none;stroke:#00AEEF;stroke-width:0.5;opacity:1.0;" x1="2877.83" x2="2877.83" y1="600.785" y2="720.121"/>
  <line id="right-margin-Black-S" style="fill:none;stroke:#00AEEF;stroke-width:0.5;opacity:1.0;" x1="2988.97" x2="2988.97" y1="600.785" y2="720.121"/>
 </g>
 <g id="Symbols">
  <g id="Black-S" transform="matrix(1 0 0 1 2877.83 696)">
   <path class="monochrome-1" fill-rule="evenodd" d="M 33.214 -71.223 L 33.088 -71.215 L 32.902 -71.208 L 32.776 -71.193 L 32.598 -71.171 L 32.472 -71.148 L 32.293 -71.119 L 32.167 -71.096 L 31.989 -71.059 L 31.863 -71.022 L 31.692 -70.978 L 31.566 -70.941 L 31.395 -70.881 L 31.276 -70.837 L 31.106 -70.770 L 30.987 -70.725 L 30.816 -70.651 L 30.705 -70.599 L 30.542 -70.517 L 30.430 -70.451 L 30.267 -70.362 L 30.163 -70.302 L 30.007 -70.198 L 29.903 -70.131 L 29.755 -70.028 L 29.651 -69.953 L 29.502 -69.835 L 29.406 -69.760 L 29.272 -69.634 L 29.176 -69.552 L 29.042 -69.426 L 28.953 -69.337 L 28.827 -69.204 L 28.745 -69.107 L 28.619 -68.974 L 28.545 -68.877 L 28.426 -68.729 L 28.352 -68.625 L 28.248 -68.476 L 28.181 -68.372 L 28.077 -68.216 L 28.018 -68.112 L 27.929 -67.949 L 27.862 -67.838 L 27.780 -67.675 L 27.728 -67.563 L 27.654 -67.392 L 27.610 -67.274 L 27.543 -67.103 L 27.498 -66.984 L 27.439 -66.814 L 27.402 -66.687 L 27.357 -66.517 L 27.320 -66.390 L 27.283 -66.212 L 27.261 -66.086 L 27.231 -65.908 L 27.209 -65.782 L 27.187 -65.604 L 27.172 -65.477 L 27.164 -65.292 L 27.157 -65.166 L 27.149 -64.988 L 27.149 -64.921 L 27.149 -58.983 L 27.149 -58.968 L 27.149 -58.953 L 27.149 -58.901 L 27.149 -58.856 L 27.157 -58.842 L 27.157 -58.819 L 27.157 -58.775 L 27.164 -58.730 L 27.164 -58.715 L 27.164 -58.693 L 27.172 -58.649 L 27.179 -58.604 L 27.179 -58.582 L 27.179 -58.567 L 27.194 -58.522 L 27.201 -58.478 L 27.201 -58.463 L 27.209 -58.441 L 27.216 -58.396 L 27.224 -58.352 L 27.231 -58.337 L 27.239 -58.322 L 27.246 -58.277 L 27.261 -58.225 L 27.268 -58.211 L 27.268 -58.196 L 27.283 -58.151 L 27.298 -58.107 L 27.305 -58.092 L 27.313 -58.077 L 37.883 -29.663 L 31.974 -29.663 L 31.907 -29.663 L 31.581 -29.656 L 31.455 -29.648 L 31.128 -29.626 L 31.002 -29.611 L 30.675 -29.574 L 30.549 -29.552 L 30.230 -29.500 L 30.104 -29.470 L 29.785 -29.403 L 29.658 -29.366 L 29.339 -29.284 L 29.220 -29.247 L 28.909 -29.143 L 28.790 -29.099 L 28.486 -28.980 L 28.367 -28.928 L 28.062 -28.802 L 27.951 -28.743 L 27.654 -28.594 L 27.543 -28.535 L 27.261 -28.371 L 27.149 -28.312 L 26.875 -28.134 L 26.764 -28.060 L 26.496 -27.874 L 26.400 -27.800 L 26.140 -27.599 L 26.036 -27.518 L 25.791 -27.303 L 25.695 -27.214 L 25.457 -26.991 L 25.368 -26.902 L 25.145 -26.664 L 25.056 -26.568 L 24.841 -26.323 L 24.759 -26.219 L 24.559 -25.959 L 24.485 -25.863 L 24.299 -25.595 L 24.225 -25.484 L 24.047 -25.209 L 23.987 -25.098 L 23.824 -24.816 L 23.765 -24.705 L 23.616 -24.408 L 23.557 -24.296 L 23.431 -23.992 L 23.379 -23.873 L 23.260 -23.569 L 23.215 -23.450 L 23.112 -23.138 L 23.074 -23.020 L 22.993 -22.701 L 22.956 -22.574 L 22.889 -22.255 L 22.859 -22.129 L 22.807 -21.810 L 22.785 -21.684 L 22.748 -21.357 L 22.733 -21.231 L 22.711 -20.904 L 22.703 -20.778 L 22.696 -20.451 L 22.696 -20.385 L 22.696 -8.508 L 22.696 -8.442 L 22.703 -8.115 L 22.711 -7.989 L 22.733 -7.662 L 22.748 -7.536 L 22.785 -7.209 L 22.807 -7.083 L 22.859 -6.764 L 22.889 -6.638 L 22.956 -6.319 L 22.993 -6.192 L 23.074 -5.873 L 23.112 -5.755 L 23.215 -5.443 L 23.260 -5.324 L 23.379 -5.020 L 23.431 -4.901 L 23.557 -4.597 L 23.616 -4.485 L 23.765 -4.188 L 23.824 -4.077 L 23.987 -3.795 L 24.047 -3.684 L 24.225 -3.409 L 24.299 -3.298 L 24.485 -3.030 L 24.559 -2.934 L 24.759 -2.674 L 24.841 -2.570 L 25.056 -2.325 L 25.145 -2.229 L 25.368 -1.991 L 25.457 -1.902 L 25.695 -1.679 L 25.791 -1.590 L 26.036 -1.375 L 26.140 -1.294 L 26.400 -1.093 L 26.496 -1.019 L 26.764 -0.833 L 26.875 -0.759 L 27.149 -0.581 L 27.261 -0.522 L 27.543 -0.358 L 27.654 -0.299 L 27.951 -0.150 L 28.062 -0.091 L 28.367 0.035 L 28.486 0.087 L 28.790 0.206 L 28.909 0.250 L 29.220 0.354 L 29.339 0.391 L 29.658 0.473 L 29.785 0.510 L 30.104 0.577 L 30.230 0.607 L 30.549 0.659 L 30.675 0.681 L 31.002 0.718 L 31.128 0.733 L 31.455 0.755 L 31.581 0.763 L 31.907 0.770 L 31.974 0.770 L 75.026 0.770 L 75.093 0.770 L 75.419 0.763 L 75.545 0.755 L 75.872 0.733 L 75.998 0.718 L 76.325 0.681 L 76.451 0.659 L 76.770 0.607 L 76.896 0.577 L 77.215 0.510 L 77.342 0.473 L 77.661 0.391 L 77.780 0.354 L 78.091 0.250 L 78.210 0.206 L 78.514 0.087 L 78.633 0.035 L 78.938 -0.091 L 79.049 -0.150 L 79.346 -0.299 L 79.457 -0.358 L 79.739 -0.522 L 79.851 -0.581 L 80.125 -0.759 L 80.236 -0.833 L 80.504 -1.019 L 80.600 -1.093 L 80.860 -1.294 L 80.964 -1.375 L 81.209 -1.590 L 81.305 -1.679 L 81.543 -1.902 L 81.632 -1.991 L 81.855 -2.229 L 81.944 -2.325 L 82.159 -2.570 L 82.241 -2.674 L 82.441 -2.934 L 82.515 -3.030 L 82.701 -3.298 L 82.775 -3.409 L 82.953 -3.684 L 83.013 -3.795 L 83.176 -4.077 L 83.235 -4.188 L 83.384 -4.485 L 83.443 -4.597 L 83.569 -4.901 L 83.621 -5.020 L 83.740 -5.324 L 83.785 -5.443 L 83.888 -5.755 L 83.926 -5.873 L 84.007 -6.192 L 84.044 -6.319 L 84.111 -6.638 L 84.141 -6.764 L 84.193 -7.083 L 84.215 -7.209 L 84.252 -7.536 L 84.267 -7.662 L 84.289 -7.989 L 84.297 -8.115 L 84.304 -8.442 L 84.304 -8.508 L 84.304 -20.385 L 84.304 -20.451 L 84.297 -20.778 L 84.289 -20.904 L 84.267 -21.231 L 84.252 -21.357 L 84.215 -21.684 L 84.193 -21.810 L 84.141 -22.129 L 84.111 -22.255 L 84.044 -22.574 L 84.007 -22.701 L 83.926 -23.020 L 83.888 -23.138 L 83.785 -23.450 L 83.740 -23.569 L 83.621 -23.873 L 83.569 -23.992 L 83.443 -24.296 L 83.384 -24.408 L 83.235 -24.705 L 83.176 -24.816 L 83.013 -25.098 L 82.953 -25.209 L 82.775 -25.484 L 82.701 -25.595 L 82.515 -25.863 L 82.441 -25.959 L 82.241 -26.219 L 82.159 -26.323 L 81.944 -26.568 L 81.855 -26.664 L 81.632 -26.902 L 81.543 -26.991 L 81.305 -27.214 L 81.209 -27.303 L 80.964 -27.518 L 80.860 -27.599 L 80.600 -27.800 L 80.504 -27.874 L 80.236 -28.060 L 80.125 -28.134 L 79.851 -28.312 L 79.739 -28.371 L 79.457 -28.535 L 79.346 -28.594 L 79.049 -28.743 L 78.938 -28.802 L 78.633 -28.928 L 78.514 -28.980 L 78.210 -29.099 L 78.091 -29.143 L 77.780 -29.247 L 77.661 -29.284 L 77.342 -29.366 L 77.215 -29.403 L 76.896 -29.470 L 76.770 -29.500 L 76.451 -29.552 L 76.325 -29.574 L 75.998 -29.611 L 75.872 -29.626 L 75.545 -29.648 L 75.419 -29.656 L 75.093 -29.663 L 75.026 -29.663 L 69.117 -29.663 L 79.687 -58.077 L 79.695 -58.092 L 79.702 -58.107 L 79.717 -58.151 L 79.732 -58.196 L 79.732 -58.211 L 79.739 -58.225 L 79.754 -58.277 L 79.761 -58.322 L 79.769 -58.337 L 79.776 -58.352 L 79.784 -58.396 L 79.791 -58.448 L 79.799 -58.463 L 79.799 -58.478 L 79.806 -58.522 L 79.821 -58.574 L 79.821 -58.589 L 79.821 -58.604 L 79.828 -58.649 L 79.836 -58.701 L 79.836 -58.715 L 79.836 -58.730 L 79.843 -58.775 L 79.843 -58.827 L 79.843 -58.842 L 79.851 -58.856 L 79.851 -58.908 L 79.851 -58.953 L 79.851 -58.968 L 79.851 -58.983 L 79.851 -64.921 L 79.851 -64.988 L 79.843 -65.166 L 79.836 -65.292 L 79.828 -65.477 L 79.813 -65.604 L 79.791 -65.782 L 79.769 -65.908 L 79.739 -66.086 L 79.717 -66.212 L 79.680 -66.390 L 79.643 -66.517 L 79.598 -66.687 L 79.561 -66.814 L 79.502 -66.984 L 79.457 -67.103 L 79.390 -67.274 L 79.346 -67.392 L 79.272 -67.563 L 79.220 -67.675 L 79.138 -67.838 L 79.071 -67.949 L 78.982 -68.112 L 78.923 -68.216 L 78.819 -68.372 L 78.752 -68.476 L 78.648 -68.625 L 78.574 -68.729 L 78.455 -68.877 L 78.381 -68.974 L 78.255 -69.107 L 78.173 -69.204 L 78.047 -69.337 L 77.958 -69.426 L 77.824 -69.552 L 77.728 -69.634 L 77.594 -69.760 L 77.498 -69.835 L 77.349 -69.953 L 77.245 -70.028 L 77.097 -70.131 L 76.993 -70.198 L 76.837 -70.302 L 76.733 -70.362 L 76.570 -70.451 L 76.458 -70.517 L 76.295 -70.599 L 76.184 -70.651 L 76.013 -70.725 L 75.894 -70.770 L 75.724 -70.837 L 75.605 -70.881 L 75.434 -70.941 L 75.308 -70.978 L 75.137 -71.022 L 75.011 -71.059 L 74.833 -71.096 L 74.707 -71.119 L 74.528 -71.148 L 74.402 -71.171 L 74.224 -71.193 L 74.098 -71.208 L 73.912 -71.215 L 73.786 -71.223 L 73.608 -71.230 L 73.541 -71.230 L 33.459 -71.230 L 33.392 -71.230 Z M 73.512 -56.385 L 63.573 -29.663 L 43.427 -29.663 L 33.488 -56.385 Z M 73.593 -66.034 L 73.653 -66.027 L 73.705 -66.019 L 73.756 -66.012 L 73.808 -65.997 L 73.868 -65.982 L 73.912 -65.967 L 73.964 -65.945 L 74.016 -65.930 L 74.068 -65.901 L 74.113 -65.878 L 74.157 -65.849 L 74.202 -65.811 L 74.246 -65.782 L 74.291 -65.745 L 74.328 -65.708 L 74.365 -65.670 L 74.402 -65.626 L 74.432 -65.581 L 74.469 -65.537 L 74.499 -65.492 L 74.521 -65.448 L 74.551 -65.396 L 74.566 -65.344 L 74.588 -65.292 L 74.603 -65.247 L 74.618 -65.188 L 74.632 -65.136 L 74.640 -65.084 L 74.647 -65.032 L 74.655 -64.973 L 74.655 -64.891 L 74.655 -61.581 L 32.345 -61.581 L 32.345 -64.891 L 32.345 -64.973 L 32.353 -65.032 L 32.360 -65.084 L 32.368 -65.136 L 32.382 -65.188 L 32.397 -65.247 L 32.412 -65.292 L 32.434 -65.344 L 32.449 -65.396 L 32.479 -65.448 L 32.501 -65.492 L 32.531 -65.537 L 32.568 -65.581 L 32.598 -65.626 L 32.635 -65.670 L 32.672 -65.708 L 32.709 -65.745 L 32.754 -65.782 L 32.798 -65.811 L 32.843 -65.849 L 32.887 -65.878 L 32.932 -65.901 L 32.984 -65.930 L 33.036 -65.945 L 33.088 -65.967 L 33.132 -65.982 L 33.192 -65.997 L 33.244 -66.012 L 33.295 -66.019 L 33.347 -66.027 L 33.407 -66.034 L 33.488 -66.034 L 73.512 -66.034 Z M 75.627 -24.423 L 75.820 -24.385 L 76.020 -24.341 L 76.213 -24.289 L 76.399 -24.230 L 76.585 -24.155 L 76.770 -24.074 L 76.948 -23.985 L 77.126 -23.888 L 77.297 -23.777 L 77.460 -23.665 L 77.616 -23.539 L 77.765 -23.406 L 77.913 -23.272 L 78.047 -23.124 L 78.180 -22.975 L 78.307 -22.819 L 78.418 -22.656 L 78.529 -22.485 L 78.626 -22.307 L 78.715 -22.129 L 78.796 -21.943 L 78.871 -21.758 L 78.930 -21.572 L 78.982 -21.379 L 79.027 -21.179 L 79.064 -20.986 L 79.086 -20.785 L 79.101 -20.585 L 79.108 -20.355 L 79.108 -8.538 L 79.101 -8.308 L 79.086 -8.108 L 79.064 -7.907 L 79.027 -7.714 L 78.982 -7.514 L 78.930 -7.321 L 78.871 -7.135 L 78.796 -6.950 L 78.715 -6.764 L 78.626 -6.586 L 78.529 -6.408 L 78.418 -6.237 L 78.307 -6.074 L 78.180 -5.918 L 78.047 -5.769 L 77.913 -5.621 L 77.765 -5.487 L 77.616 -5.354 L 77.460 -5.228 L 77.297 -5.116 L 77.126 -5.005 L 76.948 -4.908 L 76.770 -4.819 L 76.585 -4.738 L 76.399 -4.663 L 76.213 -4.604 L 76.020 -4.552 L 75.820 -4.508 L 75.627 -4.470 L 75.427 -4.448 L 75.226 -4.433 L 74.996 -4.426 L 32.004 -4.426 L 31.774 -4.433 L 31.573 -4.448 L 31.373 -4.470 L 31.180 -4.508 L 30.980 -4.552 L 30.787 -4.604 L 30.601 -4.663 L 30.415 -4.738 L 30.230 -4.819 L 30.052 -4.908 L 29.874 -5.005 L 29.703 -5.116 L 29.540 -5.228 L 29.384 -5.354 L 29.235 -5.487 L 29.087 -5.621 L 28.953 -5.769 L 28.820 -5.918 L 28.693 -6.074 L 28.582 -6.237 L 28.471 -6.408 L 28.374 -6.586 L 28.285 -6.764 L 28.204 -6.950 L 28.129 -7.135 L 28.070 -7.321 L 28.018 -7.514 L 27.973 -7.714 L 27.936 -7.907 L 27.914 -8.108 L 27.899 -8.308 L 27.892 -8.538 L 27.892 -20.355 L 27.899 -20.585 L 27.914 -20.785 L 27.936 -20.986 L 27.973 -21.179 L 28.018 -21.379 L 28.070 -21.572 L 28.129 -21.758 L 28.204 -21.943 L 28.285 -22.129 L 28.374 -22.307 L 28.471 -22.485 L 28.582 -22.656 L 28.693 -22.819 L 28.820 -22.975 L 28.953 -23.124 L 29.087 -23.272 L 29.235 -23.406 L 29.384 -23.539 L 29.540 -23.665 L 29.703 -23.777 L 29.874 -23.888 L 30.052 -23.985 L 30.230 -24.074 L 30.415 -24.155 L 30.601 -24.230 L 30.787 -24.289 L 30.980 -24.341 L 31.180 -24.385 L 31.373 -24.423 L 31.573 -24.445 L 31.774 -24.460 L 32.004 -24.467 L 74.996 -24.467 L 75.226 -24.460 L 75.427 -24.445 Z M 75.382 -14.818 L 75.375 -15.003 L 75.360 -15.129 L 75.338 -15.308 L 75.315 -15.434 L 75.286 -15.612 L 75.263 -15.738 L 75.226 -15.916 L 75.189 -16.042 L 75.145 -16.213 L 75.107 -16.339 L 75.048 -16.510 L 75.004 -16.629 L 74.937 -16.799 L 74.892 -16.918 L 74.818 -17.089 L 74.766 -17.200 L 74.684 -17.364 L 74.618 -17.475 L 74.528 -17.638 L 74.469 -17.742 L 74.365 -17.898 L 74.298 -18.002 L 74.194 -18.150 L 74.120 -18.254 L 74.001 -18.403 L 73.927 -18.499 L 73.801 -18.633 L 73.719 -18.729 L 73.593 -18.863 L 73.504 -18.952 L 73.371 -19.078 L 73.274 -19.160 L 73.140 -19.286 L 73.044 -19.360 L 72.895 -19.479 L 72.792 -19.553 L 72.643 -19.657 L 72.539 -19.724 L 72.383 -19.828 L 72.279 -19.887 L 72.116 -19.976 L 72.005 -20.043 L 71.841 -20.125 L 71.730 -20.177 L 71.559 -20.251 L 71.441 -20.296 L 71.270 -20.362 L 71.151 -20.407 L 70.980 -20.466 L 70.854 -20.503 L 70.684 -20.548 L 70.557 -20.585 L 70.379 -20.622 L 70.253 -20.644 L 70.075 -20.674 L 69.949 -20.696 L 69.771 -20.719 L 69.644 -20.734 L 69.459 -20.741 L 69.333 -20.748 L 69.154 -20.756 L 69.021 -20.756 L 68.843 -20.748 L 68.716 -20.741 L 68.531 -20.734 L 68.405 -20.719 L 68.227 -20.696 L 68.100 -20.674 L 67.922 -20.644 L 67.796 -20.622 L 67.618 -20.585 L 67.492 -20.548 L 67.321 -20.503 L 67.195 -20.466 L 67.024 -20.407 L 66.905 -20.362 L 66.735 -20.296 L 66.616 -20.251 L 66.445 -20.177 L 66.334 -20.125 L 66.171 -20.043 L 66.059 -19.976 L 65.896 -19.887 L 65.792 -19.828 L 65.636 -19.724 L 65.532 -19.657 L 65.384 -19.553 L 65.280 -19.479 L 65.131 -19.360 L 65.035 -19.286 L 64.901 -19.160 L 64.805 -19.078 L 64.671 -18.952 L 64.582 -18.863 L 64.456 -18.729 L 64.374 -18.633 L 64.248 -18.499 L 64.174 -18.403 L 64.055 -18.254 L 63.981 -18.150 L 63.877 -18.002 L 63.810 -17.898 L 63.706 -17.742 L 63.647 -17.638 L 63.558 -17.475 L 63.491 -17.364 L 63.409 -17.200 L 63.357 -17.089 L 63.283 -16.918 L 63.239 -16.799 L 63.172 -16.629 L 63.127 -16.510 L 63.068 -16.339 L 63.031 -16.213 L 62.986 -16.042 L 62.949 -15.916 L 62.912 -15.738 L 62.890 -15.612 L 62.860 -15.434 L 62.838 -15.308 L 62.815 -15.129 L 62.801 -15.003 L 62.793 -14.818 L 62.786 -14.691 L 62.778 -14.513 L 62.778 -14.380 L 62.786 -14.202 L 62.793 -14.075 L 62.801 -13.890 L 62.815 -13.764 L 62.838 -13.585 L 62.860 -13.459 L 62.890 -13.281 L 62.912 -13.155 L 62.949 -12.977 L 62.986 -12.851 L 63.031 -12.680 L 63.068 -12.554 L 63.127 -12.383 L 63.172 -12.264 L 63.239 -12.094 L 63.283 -11.975 L 63.357 -11.804 L 63.409 -11.693 L 63.491 -11.529 L 63.558 -11.418 L 63.647 -11.255 L 63.706 -11.151 L 63.810 -10.995 L 63.877 -10.891 L 63.981 -10.743 L 64.055 -10.639 L 64.174 -10.490 L 64.248 -10.394 L 64.374 -10.260 L 64.456 -10.164 L 64.582 -10.030 L 64.671 -9.941 L 64.805 -9.815 L 64.901 -9.733 L 65.035 -9.607 L 65.131 -9.533 L 65.280 -9.414 L 65.384 -9.340 L 65.532 -9.236 L 65.636 -9.169 L 65.792 -9.065 L 65.896 -9.006 L 66.059 -8.917 L 66.171 -8.850 L 66.334 -8.768 L 66.445 -8.716 L 66.616 -8.642 L 66.735 -8.597 L 66.905 -8.531 L 67.024 -8.486 L 67.195 -8.427 L 67.321 -8.390 L 67.492 -8.345 L 67.618 -8.308 L 67.796 -8.271 L 67.922 -8.249 L 68.100 -8.219 L 68.227 -8.197 L 68.405 -8.174 L 68.531 -8.159 L 68.716 -8.152 L 68.843 -8.145 L 69.021 -8.137 L 69.154 -8.137 L 69.333 -8.145 L 69.459 -8.152 L 69.644 -8.159 L 69.771 -8.174 L 69.949 -8.197 L 70.075 -8.219 L 70.253 -8.249 L 70.379 -8.271 L 70.557 -8.308 L 70.684 -8.345 L 70.854 -8.390 L 70.980 -8.427 L 71.151 -8.486 L 71.270 -8.531 L 71.441 -8.597 L 71.559 -8.642 L 71.730 -8.716 L 71.841 -8.768 L 72.005 -8.850 L 72.116 -8.917 L 72.279 -9.006 L 72.383 -9.065 L 72.539 -9.169 L 72.643 -9.236 L 72.792 -9.340 L 72.895 -9.414 L 73.044 -9.533 L 73.140 -9.607 L 73.274 -9.733 L 73.371 -9.815 L 73.504 -9.941 L 73.593 -10.030 L 73.719 -10.164 L 73.801 -10.260 L 73.927 -10.394 L 74.001 -10.490 L 74.120 -10.639 L 74.194 -10.743 L 74.298 -10.891 L 74.365 -10.995 L 74.469 -11.151 L 74.528 -11.255 L 74.618 -11.418 L 74.684 -11.529 L 74.766 -11.693 L 74.818 -11.804 L 74.892 -11.975 L 74.937 -12.094 L 75.004 -12.264 L 75.048 -12.383 L 75.107 -12.554 L 75.145 -12.680 L 75.189 -12.851 L 75.226 -12.977 L 75.263 -13.155 L 75.286 -13.281 L 75.315 -13.459 L 75.338 -13.585 L 75.360 -13.764 L 75.375 -13.890 L 75.382 -14.075 L 75.389 -14.202 L 75.397 -14.380 L 75.397 -14.513 L 75.389 -14.691 Z M 70.186 -14.283 L 70.179 -14.231 L 70.164 -14.179 L 70.149 -14.120 L 70.134 -14.075 L 70.112 -14.023 L 70.097 -13.971 L 70.067 -13.919 L 70.045 -13.875 L 70.015 -13.830 L 69.978 -13.786 L 69.949 -13.741 L 69.912 -13.697 L 69.874 -13.660 L 69.837 -13.623 L 69.793 -13.585 L 69.748 -13.556 L 69.704 -13.519 L 69.659 -13.489 L 69.615 -13.467 L 69.563 -13.437 L 69.511 -13.422 L 69.459 -13.400 L 69.414 -13.385 L 69.355 -13.370 L 69.303 -13.355 L 69.251 -13.348 L 69.199 -13.341 L 69.140 -13.333 L 69.088 -13.333 L 69.036 -13.333 L 68.976 -13.341 L 68.924 -13.348 L 68.872 -13.355 L 68.820 -13.370 L 68.761 -13.385 L 68.716 -13.400 L 68.665 -13.422 L 68.613 -13.437 L 68.561 -13.467 L 68.516 -13.489 L 68.472 -13.519 L 68.427 -13.556 L 68.382 -13.585 L 68.338 -13.623 L 68.301 -13.660 L 68.264 -13.697 L 68.227 -13.741 L 68.197 -13.786 L 68.160 -13.830 L 68.130 -13.875 L 68.108 -13.919 L 68.078 -13.971 L 68.063 -14.023 L 68.041 -14.075 L 68.026 -14.120 L 68.011 -14.179 L 67.996 -14.231 L 67.989 -14.283 L 67.982 -14.335 L 67.974 -14.395 L 67.974 -14.446 L 67.974 -14.498 L 67.982 -14.558 L 67.989 -14.610 L 67.996 -14.662 L 68.011 -14.714 L 68.026 -14.773 L 68.041 -14.818 L 68.063 -14.870 L 68.078 -14.922 L 68.108 -14.974 L 68.130 -15.018 L 68.160 -15.063 L 68.197 -15.107 L 68.227 -15.152 L 68.264 -15.196 L 68.301 -15.233 L 68.338 -15.270 L 68.382 -15.308 L 68.427 -15.337 L 68.472 -15.374 L 68.516 -15.404 L 68.561 -15.426 L 68.613 -15.456 L 68.665 -15.471 L 68.716 -15.493 L 68.761 -15.508 L 68.820 -15.523 L 68.872 -15.538 L 68.924 -15.545 L 68.976 -15.552 L 69.036 -15.560 L 69.088 -15.560 L 69.140 -15.560 L 69.199 -15.552 L 69.251 -15.545 L 69.303 -15.538 L 69.355 -15.523 L 69.414 -15.508 L 69.459 -15.493 L 69.511 -15.471 L 69.563 -15.456 L 69.615 -15.426 L 69.659 -15.404 L 69.704 -15.374 L 69.748 -15.337 L 69.793 -15.308 L 69.837 -15.270 L 69.874 -15.233 L 69.912 -15.196 L 69.949 -15.152 L 69.978 -15.107 L 70.015 -15.063 L 70.045 -15.018 L 70.067 -14.974 L 70.097 -14.922 L 70.112 -14.870 L 70.134 -14.818 L 70.149 -14.773 L 70.164 -14.714 L 70.179 -14.662 L 70.186 -14.610 L 70.194 -14.558 L 70.201 -14.498 L 70.201 -14.446 L 70.201 -14.395 L 70.194 -14.335 Z"/>
  </g>
  <g id="Regular-S" transform="matrix(1 0 0 1 1396.3 696)">
   <path class="monochrome-1" fill-rule="evenodd" d="M 33.214 -71.223 L 33.088 -71.215 L 32.902 -71.208 L 32.776 -71.193 L 32.598 -71.171 L 32.472 -71.148 L 32.293 -71.119 L 32.167 -71.096 L 31.989 -71.059 L 31.863 -71.022 L 31.692 -70.978 L 31.566 -70.941 L 31.395 -70.881 L 31.276 -70.837 L 31.106 -70.770 L 30.987 -70.725 L 30.816 -70.651 L 30.705 -70.599 L 30.542 -70.517 L 30.430 -70.451 L 30.267 -70.362 L 30.163 -70.302 L 30.007 -70.198 L 29.903 -70.131 L 29.755 -70.028 L 29.651 -69.953 L 29.502 -69.835 L 29.406 -69.760 L 29.272 -69.634 L 29.176 -69.552 L 29.042 -69.426 L 28.953 -69.337 L 28.827 -69.204 L 28.745 -69.107 L 28.619 -68.974 L 28.545 -68.877 L 28.426 -68.729 L 28.352 -68.625 L 28.248 -68.476 L 28.181 -68.372 L 28.077 -68.216 L 28.018 -68.112 L 27.929 -67.949 L 27.862 -67.838 L 27.780 -67.675 L 27.728 -67.563 L 27.654 -67.392 L 27.610 -67.274 L 27.543 -67.103 L 27.498 -66.984 L 27.439 -66.814 L 27.402 -66.687 L 27.357 -66.517 L 27.320 -66.390 L 27.283 -66.212 L 27.261 -66.086 L 27.231 -65.908 L 27.209 -65.782 L 27.187 -65.604 L 27.172 -65.477 L 27.164 -65.292 L 27.157 -65.166 L 27.149 -64.988 L 27.149 -64.921 L 27.149 -58.983 L 27.149 -58.968 L 27.149 -58.953 L 27.149 -58.901 L 27.149 -58.856 L 27.157 -58.842 L 27.157 -58.819 L 27.157 -58.775 L 27.164 -58.730 L 27.164 -58.715 L 27.164 -58.693 L 27.172 -58.649 L 27.179 -58.604 L 27.179 -58.582 L 27.179 -58.567 L 27.194 -58.522 L 27.201 -58.478 L 27.201 -58.463 L 27.209 -58.441 L 27.216 -58.396 L 27.224 -58.352 L 27.231 -58.337 L 27.239 -58.322 L 27.246 -58.277 L 27.261 -58.225 L 27.268 -58.211 L 27.268 -58.196 L 27.283 -58.151 L 27.298 -58.107 L 27.305 -58.092 L 27.313 -58.077 L 37.883 -29.663 L 31.974 -29.663 L 31.907 -29.663 L 31.581 -29.656 L 31.455 -29.648 L 31.128 -29.626 L 31.002 -29.611 L 30.675 -29.574 L 30.549 -29.552 L 30.230 -29.500 L 30.104 -29.470 L 29.785 -29.403 L 29.658 -29.366 L 29.339 -29.284 L 29.220 -29.247 L 28.909 -29.143 L 28.790 -29.099 L 28.486 -28.980 L 28.367 -28.928 L 28.062 -28.802 L 27.951 -28.743 L 27.654 -28.594 L 27.543 -28.535 L 27.261 -28.371 L 27.149 -28.312 L 26.875 -28.134 L 26.764 -28.060 L 26.496 -27.874 L 26.400 -27.800 L 26.140 -27.599 L 26.036 -27.518 L 25.791 -27.303 L 25.695 -27.214 L 25.457 -26.991 L 25.368 -26.902 L 25.145 -26.664 L 25.056 -26.568 L 24.841 -26.323 L 24.759 -26.219 L 24.559 -25.959 L 24.485 -25.863 L 24.299 -25.595 L 24.225 -25.484 L 24.047 -25.209 L 23.987 -25.098 L 23.824 -24.816 L 23.765 -24.705 L 23.616 -24.408 L 23.557 -24.296 L 23.431 -23.992 L 23.379 -23.873 L 23.260 -23.569 L 23.215 -23.450 L 23.112 -23.138 L 23.074 -23.020 L 22.993 -22.701 L 22.956 -22.574 L 22.889 -22.255 L 22.859 -22.129 L 22.807 -21.810 L 22.785 -21.684 L 22.748 -21.357 L 22.733 -21.231 L 22.711 -20.904 L 22.703 -20.778 L 22.696 -20.451 L 22.696 -20.385 L 22.696 -8.508 L 22.696 -8.442 L 22.703 -8.115 L 22.711 -7.989 L 22.733 -7.662 L 22.748 -7.536 L 22.785 -7.209 L 22.807 -7.083 L 22.859 -6.764 L 22.889 -6.638 L 22.956 -6.319 L 22.993 -6.192 L 23.074 -5.873 L 23.112 -5.755 L 23.215 -5.443 L 23.260 -5.324 L 23.379 -5.020 L 23.431 -4.901 L 23.557 -4.597 L 23.616 -4.485 L 23.765 -4.188 L 23.824 -4.077 L 23.987 -3.795 L 24.047 -3.684 L 24.225 -3.409 L 24.299 -3.298 L 24.485 -3.030 L 24.559 -2.934 L 24.759 -2.674 L 24.841 -2.570 L 25.056 -2.325 L 25.145 -2.229 L 25.368 -1.991 L 25.457 -1.902 L 25.695 -1.679 L 25.791 -1.590 L 26.036 -1.375 L 26.140 -1.294 L 26.400 -1.093 L 26.496 -1.019 L 26.764 -0.833 L 26.875 -0.759 L 27.149 -0.581 L 27.261 -0.522 L 27.543 -0.358 L 27.654 -0.299 L 27.951 -0.150 L 28.062 -0.091 L 28.367 0.035 L 28.486 0.087 L 28.790 0.206 L 28.909 0.250 L 29.220 0.354 L 29.339 0.391 L 29.658 0.473 L 29.785 0.510 L 30.104 0.577 L 30.230 0.607 L 30.549 0.659 L 30.675 0.681 L 31.002 0.718 L 31.128 0.733 L 31.455 0.755 L 31.581 0.763 L 31.907 0.770 L 31.974 0.770 L 75.026 0.770 L 75.093 0.770 L 75.419 0.763 L 75.545 0.755 L 75.872 0.733 L 75.998 0.718 L 76.325 0.681 L 76.451 0.659 L 76.770 0.607 L 76.896 0.577 L 77.215 0.510 L 77.342 0.473 L 77.661 0.391 L 77.780 0.354 L 78.091 0.250 L 78.210 0.206 L 78.514 0.087 L 78.633 0.035 L 78.938 -0.091 L 79.049 -0.150 L 79.346 -0.299 L 79.457 -0.358 L 79.739 -0.522 L 79.851 -0.581 L 80.125 -0.759 L 80.236 -0.833 L 80.504 -1.019 L 80.600 -1.093 L 80.860 -1.294 L 80.964 -1.375 L 81.209 -1.590 L 81.305 -1.679 L 81.543 -1.902 L 81.632 -1.991 L 81.855 -2.229 L 81.944 -2.325 L 82.159 -2.570 L 82.241 -2.674 L 82.441 -2.934 L 82.515 -3.030 L 82.701 -3.298 L 82.775 -3.409 L 82.953 -3.684 L 83.013 -3.795 L 83.176 -4.077 L 83.235 -4.188 L 83.384 -4.485 L 83.443 -4.597 L 83.569 -4.901 L 83.621 -5.020 L 83.740 -5.324 L 83.785 -5.443 L 83.888 -5.755 L 83.926 -5.873 L 84.007 -6.192 L 84.044 -6.319 L 84.111 -6.638 L 84.141 -6.764 L 84.193 -7.083 L 84.215 -7.209 L 84.252 -7.536 L 84.267 -7.662 L 84.289 -7.989 L 84.297 -8.115 L 84.304 -8.442 L 84.304 -8.508 L 84.304 -20.385 L 84.304 -20.451 L 84.297 -20.778 L 84.289 -20.904 L 84.267 -21.231 L 84.252 -21.357 L 84.215 -21.684 L 84.193 -21.810 L 84.141 -22.129 L 84.111 -22.255 L 84.044 -22.574 L 84.007 -22.701 L 83.926 -23.020 L 83.888 -23.138 L 83.785 -23.450 L 83.740 -23.569 L 83.621 -23.873 L 83.569 -23.992 L 83.443 -24.296 L 83.384 -24.408 L 83.235 -24.705 L 83.176 -24.816 L 83.013 -25.098 L 82.953 -25.209 L 82.775 -25.484 L 82.701 -25.595 L 82.515 -25.863 L 82.441 -25.959 L 82.241 -26.219 L 82.159 -26.323 L 81.944 -26.568 L 81.855 -26.664 L 81.632 -26.902 L 81.543 -26.991 L 81.305 -27.214 L 81.209 -27.303 L 80.964 -27.518 L 80.860 -27.599 L 80.600 -27.800 L 80.504 -27.874 L 80.236 -28.060 L 80.125 -28.134 L 79.851 -28.312 L 79.739 -28.371 L 79.457 -28.535 L 79.346 -28.594 L 79.049 -28.743 L 78.938 -28.802 L 78.633 -28.928 L 78.514 -28.980 L 78.210 -29.099 L 78.091 -29.143 L 77.780 -29.247 L 77.661 -29.284 L 77.342 -29.366 L 77.215 -29.403 L 76.896 -29.470 L 76.770 -29.500 L 76.451 -29.552 L 76.325 -29.574 L 75.998 -29.611 L 75.872 -29.626 L 75.545 -29.648 L 75.419 -29.656 L 75.093 -29.663 L 75.026 -29.663 L 69.117 -29.663 L 79.687 -58.077 L 79.695 -58.092 L 79.702 -58.107 L 79.717 -58.151 L 79.732 -58.196 L 79.732 -58.211 L 79.739 -58.225 L 79.754 -58.277 L 79.761 -58.322 L 79.769 -58.337 L 79.776 -58.352 L 79.784 -58.396 L 79.791 -58.448 L 79.799 -58.463 L 79.799 -58.478 L 79.806 -58.522 L 79.821 -58.574 L 79.821 -58.589 L 79.821 -58.604 L 79.828 -58.649 L 79.836 -58.701 L 79.836 -58.715 L 79.836 -58.730 L 79.843 -58.775 L 79.843 -58.827 L 79.843 -58.842 L 79.851 -58.856 L 79.851 -58.908 L 79.851 -58.953 L 79.851 -58.968 L 79.851 -58.983 L 79.851 -64.921 L 79.851 -64.988 L 79.843 -65.166 L 79.836 -65.292 L 79.828 -65.477 L 79.813 -65.604 L 79.791 -65.782 L 79.769 -65.908 L 79.739 -66.086 L 79.717 -66.212 L 79.680 -66.390 L 79.643 -66.517 L 79.598 -66.687 L 79.561 -66.814 L 79.502 -66.984 L 79.457 -67.103 L 79.390 -67.274 L 79.346 -67.392 L 79.272 -67.563 L 79.220 -67.675 L 79.138 -67.838 L 79.071 -67.949 L 78.982 -68.112 L 78.923 -68.216 L 78.819 -68.372 L 78.752 -68.476 L 78.648 -68.625 L 78.574 -68.729 L 78.455 -68.877 L 78.381 -68.974 L 78.255 -69.107 L 78.173 -69.204 L 78.047 -69.337 L 77.958 -69.426 L 77.824 -69.552 L 77.728 -69.634 L 77.594 -69.760 L 77.498 -69.835 L 77.349 -69.953 L 77.245 -70.028 L 77.097 -70.131 L 76.993 -70.198 L 76.837 -70.302 L 76.733 -70.362 L 76.570 -70.451 L 76.458 -70.517 L 76.295 -70.599 L 76.184 -70.651 L 76.013 -70.725 L 75.894 -70.770 L 75.724 -70.837 L 75.605 -70.881 L 75.434 -70.941 L 75.308 -70.978 L 75.137 -71.022 L 75.011 -71.059 L 74.833 -71.096 L 74.707 -71.119 L 74.528 -71.148 L 74.402 -71.171 L 74.224 -71.193 L 74.098 -71.208 L 73.912 -71.215 L 73.786 -71.223 L 73.608 -71.230 L 73.541 -71.230 L 33.459 -71.230 L 33.392 -71.230 Z M 73.512 -56.385 L 63.573 -29.663 L 43.427 -29.663 L 33.488 -56.385 Z M 73.593 -66.034 L 73.653 -66.027 L 73.705 -66.019 L 73.756 -66.012 L 73.808 -65.997 L 73.868 -65.982 L 73.912 -65.967 L 73.964 -65.945 L 74.016 -65.930 L 74.068 -65.901 L 74.113 -65.878 L 74.157 -65.849 L 74.202 -65.811 L 74.246 -65.782 L 74.291 -65.745 L 74.328 -65.708 L 74.365 -65.670 L 74.402 -65.626 L 74.432 -65.581 L 74.469 -65.537 L 74.499 -65.492 L 74.521 -65.448 L 74.551 -65.396 L 74.566 -65.344 L 74.588 -65.292 L 74.603 -65.247 L 74.618 -65.188 L 74.632 -65.136 L 74.640 -65.084 L 74.647 -65.032 L 74.655 -64.973 L 74.655 -64.891 L 74.655 -61.581 L 32.345 -61.581 L 32.345 -64.891 L 32.345 -64.973 L 32.353 -65.032 L 32.360 -65.084 L 32.368 -65.136 L 32.382 -65.188 L 32.397 -65.247 L 32.412 -65.292 L 32.434 -65.344 L 32.449 -65.396 L 32.479 -65.448 L 32.501 -65.492 L 32.531 -65.537 L 32.568 -65.581 L 32.598 -65.626 L 32.635 -65.670 L 32.672 -65.708 L 32.709 -65.745 L 32.754 -65.782 L 32.798 -65.811 L 32.843 -65.849 L 32.887 -65.878 L 32.932 -65.901 L 32.984 -65.930 L 33.036 -65.945 L 33.088 -65.967 L 33.132 -65.982 L 33.192 -65.997 L 33.244 -66.012 L 33.295 -66.019 L 33.347 -66.027 L 33.407 -66.034 L 33.488 -66.034 L 73.512 -66.034 Z M 75.627 -24.423 L 75.820 -24.385 L 76.020 -24.341 L 76.213 -24.289 L 76.399 -24.230 L 76.585 -24.155 L 76.770 -24.074 L 76.948 -23.985 L 77.126 -23.888 L 77.297 -23.777 L 77.460 -23.665 L 77.616 -23.539 L 77.765 -23.406 L 77.913 -23.272 L 78.047 -23.124 L 78.180 -22.975 L 78.307 -22.819 L 78.418 -22.656 L 78.529 -22.485 L 78.626 -22.307 L 78.715 -22.129 L 78.796 -21.943 L 78.871 -21.758 L 78.930 -21.572 L 78.982 -21.379 L 79.027 -21.179 L 79.064 -20.986 L 79.086 -20.785 L 79.101 -20.585 L 79.108 -20.355 L 79.108 -8.538 L 79.101 -8.308 L 79.086 -8.108 L 79.064 -7.907 L 79.027 -7.714 L 78.982 -7.514 L 78.930 -7.321 L 78.871 -7.135 L 78.796 -6.950 L 78.715 -6.764 L 78.626 -6.586 L 78.529 -6.408 L 78.418 -6.237 L 78.307 -6.074 L 78.180 -5.918 L 78.047 -5.769 L 77.913 -5.621 L 77.765 -5.487 L 77.616 -5.354 L 77.460 -5.228 L 77.297 -5.116 L 77.126 -5.005 L 76.948 -4.908 L 76.770 -4.819 L 76.585 -4.738 L 76.399 -4.663 L 76.213 -4.604 L 76.020 -4.552 L 75.820 -4.508 L 75.627 -4.470 L 75.427 -4.448 L 75.226 -4.433 L 74.996 -4.426 L 32.004 -4.426 L 31.774 -4.433 L 31.573 -4.448 L 31.373 -4.470 L 31.180 -4.508 L 30.980 -4.552 L 30.787 -4.604 L 30.601 -4.663 L 30.415 -4.738 L 30.230 -4.819 L 30.052 -4.908 L 29.874 -5.005 L 29.703 -5.116 L 29.540 -5.228 L 29.384 -5.354 L 29.235 -5.487 L 29.087 -5.621 L 28.953 -5.769 L 28.820 -5.918 L 28.693 -6.074 L 28.582 -6.237 L 28.471 -6.408 L 28.374 -6.586 L 28.285 -6.764 L 28.204 -6.950 L 28.129 -7.135 L 28.070 -7.321 L 28.018 -7.514 L 27.973 -7.714 L 27.936 -7.907 L 27.914 -8.108 L 27.899 -8.308 L 27.892 -8.538 L 27.892 -20.355 L 27.899 -20.585 L 27.914 -20.785 L 27.936 -20.986 L 27.973 -21.179 L 28.018 -21.379 L 28.070 -21.572 L 28.129 -21.758 L 28.204 -21.943 L 28.285 -22.129 L 28.374 -22.307 L 28.471 -22.485 L 28.582 -22.656 L 28.693 -22.819 L 28.820 -22.975 L 28.953 -23.124 L 29.087 -23.272 L 29.235 -23.406 L 29.384 -23.539 L 29.540 -23.665 L 29.703 -23.777 L 29.874 -23.888 L 30.052 -23.985 L 30.230 -24.074 L 30.415 -24.155 L 30.601 -24.230 L 30.787 -24.289 L 30.980 -24.341 L 31.180 -24.385 L 31.373 -24.423 L 31.573 -24.445 L 31.774 -24.460 L 32.004 -24.467 L 74.996 -24.467 L 75.226 -24.460 L 75.427 -24.445 Z M 75.382 -14.818 L 75.375 -15.003 L 75.360 -15.129 L 75.338 -15.308 L 75.315 -15.434 L 75.286 -15.612 L 75.263 -15.738 L 75.226 -15.916 L 75.189 -16.042 L 75.145 -16.213 L 75.107 -16.339 L 75.048 -16.510 L 75.004 -16.629 L 74.937 -16.799 L 74.892 -16.918 L 74.818 -17.089 L 74.766 -17.200 L 74.684 -17.364 L 74.618 -17.475 L 74.528 -17.638 L 74.469 -17.742 L 74.365 -17.898 L 74.298 -18.002 L 74.194 -18.150 L 74.120 -18.254 L 74.001 -18.403 L 73.927 -18.499 L 73.801 -18.633 L 73.719 -18.729 L 73.593 -18.863 L 73.504 -18.952 L 73.371 -19.078 L 73.274 -19.160 L 73.140 -19.286 L 73.044 -19.360 L 72.895 -19.479 L 72.792 -19.553 L 72.643 -19.657 L 72.539 -19.724 L 72.383 -19.828 L 72.279 -19.887 L 72.116 -19.976 L 72.005 -20.043 L 71.841 -20.125 L 71.730 -20.177 L 71.559 -20.251 L 71.441 -20.296 L 71.270 -20.362 L 71.151 -20.407 L 70.980 -20.466 L 70.854 -20.503 L 70.684 -20.548 L 70.557 -20.585 L 70.379 -20.622 L 70.253 -20.644 L 70.075 -20.674 L 69.949 -20.696 L 69.771 -20.719 L 69.644 -20.734 L 69.459 -20.741 L 69.333 -20.748 L 69.154 -20.756 L 69.021 -20.756 L 68.843 -20.748 L 68.716 -20.741 L 68.531 -20.734 L 68.405 -20.719 L 68.227 -20.696 L 68.100 -20.674 L 67.922 -20.644 L 67.796 -20.622 L 67.618 -20.585 L 67.492 -20.548 L 67.321 -20.503 L 67.195 -20.466 L 67.024 -20.407 L 66.905 -20.362 L 66.735 -20.296 L 66.616 -20.251 L 66.445 -20.177 L 66.334 -20.125 L 66.171 -20.043 L 66.059 -19.976 L 65.896 -19.887 L 65.792 -19.828 L 65.636 -19.724 L 65.532 -19.657 L 65.384 -19.553 L 65.280 -19.479 L 65.131 -19.360 L 65.035 -19.286 L 64.901 -19.160 L 64.805 -19.078 L 64.671 -18.952 L 64.582 -18.863 L 64.456 -18.729 L 64.374 -18.633 L 64.248 -18.499 L 64.174 -18.403 L 64.055 -18.254 L 63.981 -18.150 L 63.877 -18.002 L 63.810 -17.898 L 63.706 -17.742 L 63.647 -17.638 L 63.558 -17.475 L 63.491 -17.364 L 63.409 -17.200 L 63.357 -17.089 L 63.283 -16.918 L 63.239 -16.799 L 63.172 -16.629 L 63.127 -16.510 L 63.068 -16.339 L 63.031 -16.213 L 62.986 -16.042 L 62.949 -15.916 L 62.912 -15.738 L 62.890 -15.612 L 62.860 -15.434 L 62.838 -15.308 L 62.815 -15.129 L 62.801 -15.003 L 62.793 -14.818 L 62.786 -14.691 L 62.778 -14.513 L 62.778 -14.380 L 62.786 -14.202 L 62.793 -14.075 L 62.801 -13.890 L 62.815 -13.764 L 62.838 -13.585 L 62.860 -13.459 L 62.890 -13.281 L 62.912 -13.155 L 62.949 -12.977 L 62.986 -12.851 L 63.031 -12.680 L 63.068 -12.554 L 63.127 -12.383 L 63.172 -12.264 L 63.239 -12.094 L 63.283 -11.975 L 63.357 -11.804 L 63.409 -11.693 L 63.491 -11.529 L 63.558 -11.418 L 63.647 -11.255 L 63.706 -11.151 L 63.810 -10.995 L 63.877 -10.891 L 63.981 -10.743 L 64.055 -10.639 L 64.174 -10.490 L 64.248 -10.394 L 64.374 -10.260 L 64.456 -10.164 L 64.582 -10.030 L 64.671 -9.941 L 64.805 -9.815 L 64.901 -9.733 L 65.035 -9.607 L 65.131 -9.533 L 65.280 -9.414 L 65.384 -9.340 L 65.532 -9.236 L 65.636 -9.169 L 65.792 -9.065 L 65.896 -9.006 L 66.059 -8.917 L 66.171 -8.850 L 66.334 -8.768 L 66.445 -8.716 L 66.616 -8.642 L 66.735 -8.597 L 66.905 -8.531 L 67.024 -8.486 L 67.195 -8.427 L 67.321 -8.390 L 67.492 -8.345 L 67.618 -8.308 L 67.796 -8.271 L 67.922 -8.249 L 68.100 -8.219 L 68.227 -8.197 L 68.405 -8.174 L 68.531 -8.159 L 68.716 -8.152 L 68.843 -8.145 L 69.021 -8.137 L 69.154 -8.137 L 69.333 -8.145 L 69.459 -8.152 L 69.644 -8.159 L 69.771 -8.174 L 69.949 -8.197 L 70.075 -8.219 L 70.253 -8.249 L 70.379 -8.271 L 70.557 -8.308 L 70.684 -8.345 L 70.854 -8.390 L 70.980 -8.427 L 71.151 -8.486 L 71.270 -8.531 L 71.441 -8.597 L 71.559 -8.642 L 71.730 -8.716 L 71.841 -8.768 L 72.005 -8.850 L 72.116 -8.917 L 72.279 -9.006 L 72.383 -9.065 L 72.539 -9.169 L 72.643 -9.236 L 72.792 -9.340 L 72.895 -9.414 L 73.044 -9.533 L 73.140 -9.607 L 73.274 -9.733 L 73.371 -9.815 L 73.504 -9.941 L 73.593 -10.030 L 73.719 -10.164 L 73.801 -10.260 L 73.927 -10.394 L 74.001 -10.490 L 74.120 -10.639 L 74.194 -10.743 L 74.298 -10.891 L 74.365 -10.995 L 74.469 -11.151 L 74.528 -11.255 L 74.618 -11.418 L 74.684 -11.529 L 74.766 -11.693 L 74.818 -11.804 L 74.892 -11.975 L 74.937 -12.094 L 75.004 -12.264 L 75.048 -12.383 L 75.107 -12.554 L 75.145 -12.680 L 75.189 -12.851 L 75.226 -12.977 L 75.263 -13.155 L 75.286 -13.281 L 75.315 -13.459 L 75.338 -13.585 L 75.360 -13.764 L 75.375 -13.890 L 75.382 -14.075 L 75.389 -14.202 L 75.397 -14.380 L 75.397 -14.513 L 75.389 -14.691 Z M 70.186 -14.283 L 70.179 -14.231 L 70.164 -14.179 L 70.149 -14.120 L 70.134 -14.075 L 70.112 -14.023 L 70.097 -13.971 L 70.067 -13.919 L 70.045 -13.875 L 70.015 -13.830 L 69.978 -13.786 L 69.949 -13.741 L 69.912 -13.697 L 69.874 -13.660 L 69.837 -13.623 L 69.793 -13.585 L 69.748 -13.556 L 69.704 -13.519 L 69.659 -13.489 L 69.615 -13.467 L 69.563 -13.437 L 69.511 -13.422 L 69.459 -13.400 L 69.414 -13.385 L 69.355 -13.370 L 69.303 -13.355 L 69.251 -13.348 L 69.199 -13.341 L 69.140 -13.333 L 69.088 -13.333 L 69.036 -13.333 L 68.976 -13.341 L 68.924 -13.348 L 68.872 -13.355 L 68.820 -13.370 L 68.761 -13.385 L 68.716 -13.400 L 68.665 -13.422 L 68.613 -13.437 L 68.561 -13.467 L 68.516 -13.489 L 68.472 -13.519 L 68.427 -13.556 L 68.382 -13.585 L 68.338 -13.623 L 68.301 -13.660 L 68.264 -13.697 L 68.227 -13.741 L 68.197 -13.786 L 68.160 -13.830 L 68.130 -13.875 L 68.108 -13.919 L 68.078 -13.971 L 68.063 -14.023 L 68.041 -14.075 L 68.026 -14.120 L 68.011 -14.179 L 67.996 -14.231 L 67.989 -14.283 L 67.982 -14.335 L 67.974 -14.395 L 67.974 -14.446 L 67.974 -14.498 L 67.982 -14.558 L 67.989 -14.610 L 67.996 -14.662 L 68.011 -14.714 L 68.026 -14.773 L 68.041 -14.818 L 68.063 -14.870 L 68.078 -14.922 L 68.108 -14.974 L 68.130 -15.018 L 68.160 -15.063 L 68.197 -15.107 L 68.227 -15.152 L 68.264 -15.196 L 68.301 -15.233 L 68.338 -15.270 L 68.382 -15.308 L 68.427 -15.337 L 68.472 -15.374 L 68.516 -15.404 L 68.561 -15.426 L 68.613 -15.456 L 68.665 -15.471 L 68.716 -15.493 L 68.761 -15.508 L 68.820 -15.523 L 68.872 -15.538 L 68.924 -15.545 L 68.976 -15.552 L 69.036 -15.560 L 69.088 -15.560 L 69.140 -15.560 L 69.199 -15.552 L 69.251 -15.545 L 69.303 -15.538 L 69.355 -15.523 L 69.414 -15.508 L 69.459 -15.493 L 69.511 -15.471 L 69.563 -15.456 L 69.615 -15.426 L 69.659 -15.404 L 69.704 -15.374 L 69.748 -15.337 L 69.793 -15.308 L 69.837 -15.270 L 69.874 -15.233 L 69.912 -15.196 L 69.949 -15.152 L 69.978 -15.107 L 70.015 -15.063 L 70.045 -15.018 L 70.067 -14.974 L 70.097 -14.922 L 70.112 -14.870 L 70.134 -14.818 L 70.149 -14.773 L 70.164 -14.714 L 70.179 -14.662 L 70.186 -14.610 L 70.194 -14.558 L 70.201 -14.498 L 70.201 -14.446 L 70.201 -14.395 L 70.194 -14.335 Z"/>
  </g>
  <g id="Ultralight-S" transform="matrix(1 0 0 1 508.101 696)">
   <path class="monochrome-1" fill-rule="evenodd" d="M 33.214 -71.223 L 33.088 -71.215 L 32.902 -71.208 L 32.776 -71.193 L 32.598 -71.171 L 32.472 -71.148 L 32.293 -71.119 L 32.167 -71.096 L 31.989 -71.059 L 31.863 -71.022 L 31.692 -70.978 L 31.566 -70.941 L 31.395 -70.881 L 31.276 -70.837 L 31.106 -70.770 L 30.987 -70.725 L 30.816 -70.651 L 30.705 -70.599 L 30.542 -70.517 L 30.430 -70.451 L 30.267 -70.362 L 30.163 -70.302 L 30.007 -70.198 L 29.903 -70.131 L 29.755 -70.028 L 29.651 -69.953 L 29.502 -69.835 L 29.406 -69.760 L 29.272 -69.634 L 29.176 -69.552 L 29.042 -69.426 L 28.953 -69.337 L 28.827 -69.204 L 28.745 -69.107 L 28.619 -68.974 L 28.545 -68.877 L 28.426 -68.729 L 28.352 -68.625 L 28.248 -68.476 L 28.181 -68.372 L 28.077 -68.216 L 28.018 -68.112 L 27.929 -67.949 L 27.862 -67.838 L 27.780 -67.675 L 27.728 -67.563 L 27.654 -67.392 L 27.610 -67.274 L 27.543 -67.103 L 27.498 -66.984 L 27.439 -66.814 L 27.402 -66.687 L 27.357 -66.517 L 27.320 -66.390 L 27.283 -66.212 L 27.261 -66.086 L 27.231 -65.908 L 27.209 -65.782 L 27.187 -65.604 L 27.172 -65.477 L 27.164 -65.292 L 27.157 -65.166 L 27.149 -64.988 L 27.149 -64.921 L 27.149 -58.983 L 27.149 -58.968 L 27.149 -58.953 L 27.149 -58.901 L 27.149 -58.856 L 27.157 -58.842 L 27.157 -58.819 L 27.157 -58.775 L 27.164 -58.730 L 27.164 -58.715 L 27.164 -58.693 L 27.172 -58.649 L 27.179 -58.604 L 27.179 -58.582 L 27.179 -58.567 L 27.194 -58.522 L 27.201 -58.478 L 27.201 -58.463 L 27.209 -58.441 L 27.216 -58.396 L 27.224 -58.352 L 27.231 -58.337 L 27.239 -58.322 L 27.246 -58.277 L 27.261 -58.225 L 27.268 -58.211 L 27.268 -58.196 L 27.283 -58.151 L 27.298 -58.107 L 27.305 -58.092 L 27.313 -58.077 L 37.883 -29.663 L 31.974 -29.663 L 31.907 -29.663 L 31.581 -29.656 L 31.455 -29.648 L 31.128 -29.626 L 31.002 -29.611 L 30.675 -29.574 L 30.549 -29.552 L 30.230 -29.500 L 30.104 -29.470 L 29.785 -29.403 L 29.658 -29.366 L 29.339 -29.284 L 29.220 -29.247 L 28.909 -29.143 L 28.790 -29.099 L 28.486 -28.980 L 28.367 -28.928 L 28.062 -28.802 L 27.951 -28.743 L 27.654 -28.594 L 27.543 -28.535 L 27.261 -28.371 L 27.149 -28.312 L 26.875 -28.134 L 26.764 -28.060 L 26.496 -27.874 L 26.400 -27.800 L 26.140 -27.599 L 26.036 -27.518 L 25.791 -27.303 L 25.695 -27.214 L 25.457 -26.991 L 25.368 -26.902 L 25.145 -26.664 L 25.056 -26.568 L 24.841 -26.323 L 24.759 -26.219 L 24.559 -25.959 L 24.485 -25.863 L 24.299 -25.595 L 24.225 -25.484 L 24.047 -25.209 L 23.987 -25.098 L 23.824 -24.816 L 23.765 -24.705 L 23.616 -24.408 L 23.557 -24.296 L 23.431 -23.992 L 23.379 -23.873 L 23.260 -23.569 L 23.215 -23.450 L 23.112 -23.138 L 23.074 -23.020 L 22.993 -22.701 L 22.956 -22.574 L 22.889 -22.255 L 22.859 -22.129 L 22.807 -21.810 L 22.785 -21.684 L 22.748 -21.357 L 22.733 -21.231 L 22.711 -20.904 L 22.703 -20.778 L 22.696 -20.451 L 22.696 -20.385 L 22.696 -8.508 L 22.696 -8.442 L 22.703 -8.115 L 22.711 -7.989 L 22.733 -7.662 L 22.748 -7.536 L 22.785 -7.209 L 22.807 -7.083 L 22.859 -6.764 L 22.889 -6.638 L 22.956 -6.319 L 22.993 -6.192 L 23.074 -5.873 L 23.112 -5.755 L 23.215 -5.443 L 23.260 -5.324 L 23.379 -5.020 L 23.431 -4.901 L 23.557 -4.597 L 23.616 -4.485 L 23.765 -4.188 L 23.824 -4.077 L 23.987 -3.795 L 24.047 -3.684 L 24.225 -3.409 L 24.299 -3.298 L 24.485 -3.030 L 24.559 -2.934 L 24.759 -2.674 L 24.841 -2.570 L 25.056 -2.325 L 25.145 -2.229 L 25.368 -1.991 L 25.457 -1.902 L 25.695 -1.679 L 25.791 -1.590 L 26.036 -1.375 L 26.140 -1.294 L 26.400 -1.093 L 26.496 -1.019 L 26.764 -0.833 L 26.875 -0.759 L 27.149 -0.581 L 27.261 -0.522 L 27.543 -0.358 L 27.654 -0.299 L 27.951 -0.150 L 28.062 -0.091 L 28.367 0.035 L 28.486 0.087 L 28.790 0.206 L 28.909 0.250 L 29.220 0.354 L 29.339 0.391 L 29.658 0.473 L 29.785 0.510 L 30.104 0.577 L 30.230 0.607 L 30.549 0.659 L 30.675 0.681 L 31.002 0.718 L 31.128 0.733 L 31.455 0.755 L 31.581 0.763 L 31.907 0.770 L 31.974 0.770 L 75.026 0.770 L 75.093 0.770 L 75.419 0.763 L 75.545 0.755 L 75.872 0.733 L 75.998 0.718 L 76.325 0.681 L 76.451 0.659 L 76.770 0.607 L 76.896 0.577 L 77.215 0.510 L 77.342 0.473 L 77.661 0.391 L 77.780 0.354 L 78.091 0.250 L 78.210 0.206 L 78.514 0.087 L 78.633 0.035 L 78.938 -0.091 L 79.049 -0.150 L 79.346 -0.299 L 79.457 -0.358 L 79.739 -0.522 L 79.851 -0.581 L 80.125 -0.759 L 80.236 -0.833 L 80.504 -1.019 L 80.600 -1.093 L 80.860 -1.294 L 80.964 -1.375 L 81.209 -1.590 L 81.305 -1.679 L 81.543 -1.902 L 81.632 -1.991 L 81.855 -2.229 L 81.944 -2.325 L 82.159 -2.570 L 82.241 -2.674 L 82.441 -2.934 L 82.515 -3.030 L 82.701 -3.298 L 82.775 -3.409 L 82.953 -3.684 L 83.013 -3.795 L 83.176 -4.077 L 83.235 -4.188 L 83.384 -4.485 L 83.443 -4.597 L 83.569 -4.901 L 83.621 -5.020 L 83.740 -5.324 L 83.785 -5.443 L 83.888 -5.755 L 83.926 -5.873 L 84.007 -6.192 L 84.044 -6.319 L 84.111 -6.638 L 84.141 -6.764 L 84.193 -7.083 L 84.215 -7.209 L 84.252 -7.536 L 84.267 -7.662 L 84.289 -7.989 L 84.297 -8.115 L 84.304 -8.442 L 84.304 -8.508 L 84.304 -20.385 L 84.304 -20.451 L 84.297 -20.778 L 84.289 -20.904 L 84.267 -21.231 L 84.252 -21.357 L 84.215 -21.684 L 84.193 -21.810 L 84.141 -22.129 L 84.111 -22.255 L 84.044 -22.574 L 84.007 -22.701 L 83.926 -23.020 L 83.888 -23.138 L 83.785 -23.450 L 83.740 -23.569 L 83.621 -23.873 L 83.569 -23.992 L 83.443 -24.296 L 83.384 -24.408 L 83.235 -24.705 L 83.176 -24.816 L 83.013 -25.098 L 82.953 -25.209 L 82.775 -25.484 L 82.701 -25.595 L 82.515 -25.863 L 82.441 -25.959 L 82.241 -26.219 L 82.159 -26.323 L 81.944 -26.568 L 81.855 -26.664 L 81.632 -26.902 L 81.543 -26.991 L 81.305 -27.214 L 81.209 -27.303 L 80.964 -27.518 L 80.860 -27.599 L 80.600 -27.800 L 80.504 -27.874 L 80.236 -28.060 L 80.125 -28.134 L 79.851 -28.312 L 79.739 -28.371 L 79.457 -28.535 L 79.346 -28.594 L 79.049 -28.743 L 78.938 -28.802 L 78.633 -28.928 L 78.514 -28.980 L 78.210 -29.099 L 78.091 -29.143 L 77.780 -29.247 L 77.661 -29.284 L 77.342 -29.366 L 77.215 -29.403 L 76.896 -29.470 L 76.770 -29.500 L 76.451 -29.552 L 76.325 -29.574 L 75.998 -29.611 L 75.872 -29.626 L 75.545 -29.648 L 75.419 -29.656 L 75.093 -29.663 L 75.026 -29.663 L 69.117 -29.663 L 79.687 -58.077 L 79.695 -58.092 L 79.702 -58.107 L 79.717 -58.151 L 79.732 -58.196 L 79.732 -58.211 L 79.739 -58.225 L 79.754 -58.277 L 79.761 -58.322 L 79.769 -58.337 L 79.776 -58.352 L 79.784 -58.396 L 79.791 -58.448 L 79.799 -58.463 L 79.799 -58.478 L 79.806 -58.522 L 79.821 -58.574 L 79.821 -58.589 L 79.821 -58.604 L 79.828 -58.649 L 79.836 -58.701 L 79.836 -58.715 L 79.836 -58.730 L 79.843 -58.775 L 79.843 -58.827 L 79.843 -58.842 L 79.851 -58.856 L 79.851 -58.908 L 79.851 -58.953 L 79.851 -58.968 L 79.851 -58.983 L 79.851 -64.921 L 79.851 -64.988 L 79.843 -65.166 L 79.836 -65.292 L 79.828 -65.477 L 79.813 -65.604 L 79.791 -65.782 L 79.769 -65.908 L 79.739 -66.086 L 79.717 -66.212 L 79.680 -66.390 L 79.643 -66.517 L 79.598 -66.687 L 79.561 -66.814 L 79.502 -66.984 L 79.457 -67.103 L 79.390 -67.274 L 79.346 -67.392 L 79.272 -67.563 L 79.220 -67.675 L 79.138 -67.838 L 79.071 -67.949 L 78.982 -68.112 L 78.923 -68.216 L 78.819 -68.372 L 78.752 -68.476 L 78.648 -68.625 L 78.574 -68.729 L 78.455 -68.877 L 78.381 -68.974 L 78.255 -69.107 L 78.173 -69.204 L 78.047 -69.337 L 77.958 -69.426 L 77.824 -69.552 L 77.728 -69.634 L 77.594 -69.760 L 77.498 -69.835 L 77.349 -69.953 L 77.245 -70.028 L 77.097 -70.131 L 76.993 -70.198 L 76.837 -70.302 L 76.733 -70.362 L 76.570 -70.451 L 76.458 -70.517 L 76.295 -70.599 L 76.184 -70.651 L 76.013 -70.725 L 75.894 -70.770 L 75.724 -70.837 L 75.605 -70.881 L 75.434 -70.941 L 75.308 -70.978 L 75.137 -71.022 L 75.011 -71.059 L 74.833 -71.096 L 74.707 -71.119 L 74.528 -71.148 L 74.402 -71.171 L 74.224 -71.193 L 74.098 -71.208 L 73.912 -71.215 L 73.786 -71.223 L 73.608 -71.230 L 73.541 -71.230 L 33.459 -71.230 L 33.392 -71.230 Z M 73.512 -56.385 L 63.573 -29.663 L 43.427 -29.663 L 33.488 -56.385 Z M 73.593 -66.034 L 73.653 -66.027 L 73.705 -66.019 L 73.756 -66.012 L 73.808 -65.997 L 73.868 -65.982 L 73.912 -65.967 L 73.964 -65.945 L 74.016 -65.930 L 74.068 -65.901 L 74.113 -65.878 L 74.157 -65.849 L 74.202 -65.811 L 74.246 -65.782 L 74.291 -65.745 L 74.328 -65.708 L 74.365 -65.670 L 74.402 -65.626 L 74.432 -65.581 L 74.469 -65.537 L 74.499 -65.492 L 74.521 -65.448 L 74.551 -65.396 L 74.566 -65.344 L 74.588 -65.292 L 74.603 -65.247 L 74.618 -65.188 L 74.632 -65.136 L 74.640 -65.084 L 74.647 -65.032 L 74.655 -64.973 L 74.655 -64.891 L 74.655 -61.581 L 32.345 -61.581 L 32.345 -64.891 L 32.345 -64.973 L 32.353 -65.032 L 32.360 -65.084 L 32.368 -65.136 L 32.382 -65.188 L 32.397 -65.247 L 32.412 -65.292 L 32.434 -65.344 L 32.449 -65.396 L 32.479 -65.448 L 32.501 -65.492 L 32.531 -65.537 L 32.568 -65.581 L 32.598 -65.626 L 32.635 -65.670 L 32.672 -65.708 L 32.709 -65.745 L 32.754 -65.782 L 32.798 -65.811 L 32.843 -65.849 L 32.887 -65.878 L 32.932 -65.901 L 32.984 -65.930 L 33.036 -65.945 L 33.088 -65.967 L 33.132 -65.982 L 33.192 -65.997 L 33.244 -66.012 L 33.295 -66.019 L 33.347 -66.027 L 33.407 -66.034 L 33.488 -66.034 L 73.512 -66.034 Z M 75.627 -24.423 L 75.820 -24.385 L 76.020 -24.341 L 76.213 -24.289 L 76.399 -24.230 L 76.585 -24.155 L 76.770 -24.074 L 76.948 -23.985 L 77.126 -23.888 L 77.297 -23.777 L 77.460 -23.665 L 77.616 -23.539 L 77.765 -23.406 L 77.913 -23.272 L 78.047 -23.124 L 78.180 -22.975 L 78.307 -22.819 L 78.418 -22.656 L 78.529 -22.485 L 78.626 -22.307 L 78.715 -22.129 L 78.796 -21.943 L 78.871 -21.758 L 78.930 -21.572 L 78.982 -21.379 L 79.027 -21.179 L 79.064 -20.986 L 79.086 -20.785 L 79.101 -20.585 L 79.108 -20.355 L 79.108 -8.538 L 79.101 -8.308 L 79.086 -8.108 L 79.064 -7.907 L 79.027 -7.714 L 78.982 -7.514 L 78.930 -7.321 L 78.871 -7.135 L 78.796 -6.950 L 78.715 -6.764 L 78.626 -6.586 L 78.529 -6.408 L 78.418 -6.237 L 78.307 -6.074 L 78.180 -5.918 L 78.047 -5.769 L 77.913 -5.621 L 77.765 -5.487 L 77.616 -5.354 L 77.460 -5.228 L 77.297 -5.116 L 77.126 -5.005 L 76.948 -4.908 L 76.770 -4.819 L 76.585 -4.738 L 76.399 -4.663 L 76.213 -4.604 L 76.020 -4.552 L 75.820 -4.508 L 75.627 -4.470 L 75.427 -4.448 L 75.226 -4.433 L 74.996 -4.426 L 32.004 -4.426 L 31.774 -4.433 L 31.573 -4.448 L 31.373 -4.470 L 31.180 -4.508 L 30.980 -4.552 L 30.787 -4.604 L 30.601 -4.663 L 30.415 -4.738 L 30.230 -4.819 L 30.052 -4.908 L 29.874 -5.005 L 29.703 -5.116 L 29.540 -5.228 L 29.384 -5.354 L 29.235 -5.487 L 29.087 -5.621 L 28.953 -5.769 L 28.820 -5.918 L 28.693 -6.074 L 28.582 -6.237 L 28.471 -6.408 L 28.374 -6.586 L 28.285 -6.764 L 28.204 -6.950 L 28.129 -7.135 L 28.070 -7.321 L 28.018 -7.514 L 27.973 -7.714 L 27.936 -7.907 L 27.914 -8.108 L 27.899 -8.308 L 27.892 -8.538 L 27.892 -20.355 L 27.899 -20.585 L 27.914 -20.785 L 27.936 -20.986 L 27.973 -21.179 L 28.018 -21.379 L 28.070 -21.572 L 28.129 -21.758 L 28.204 -21.943 L 28.285 -22.129 L 28.374 -22.307 L 28.471 -22.485 L 28.582 -22.656 L 28.693 -22.819 L 28.820 -22.975 L 28.953 -23.124 L 29.087 -23.272 L 29.235 -23.406 L 29.384 -23.539 L 29.540 -23.665 L 29.703 -23.777 L 29.874 -23.888 L 30.052 -23.985 L 30.230 -24.074 L 30.415 -24.155 L 30.601 -24.230 L 30.787 -24.289 L 30.980 -24.341 L 31.180 -24.385 L 31.373 -24.423 L 31.573 -24.445 L 31.774 -24.460 L 32.004 -24.467 L 74.996 -24.467 L 75.226 -24.460 L 75.427 -24.445 Z M 75.382 -14.818 L 75.375 -15.003 L 75.360 -15.129 L 75.338 -15.308 L 75.315 -15.434 L 75.286 -15.612 L 75.263 -15.738 L 75.226 -15.916 L 75.189 -16.042 L 75.145 -16.213 L 75.107 -16.339 L 75.048 -16.510 L 75.004 -16.629 L 74.937 -16.799 L 74.892 -16.918 L 74.818 -17.089 L 74.766 -17.200 L 74.684 -17.364 L 74.618 -17.475 L 74.528 -17.638 L 74.469 -17.742 L 74.365 -17.898 L 74.298 -18.002 L 74.194 -18.150 L 74.120 -18.254 L 74.001 -18.403 L 73.927 -18.499 L 73.801 -18.633 L 73.719 -18.729 L 73.593 -18.863 L 73.504 -18.952 L 73.371 -19.078 L 73.274 -19.160 L 73.140 -19.286 L 73.044 -19.360 L 72.895 -19.479 L 72.792 -19.553 L 72.643 -19.657 L 72.539 -19.724 L 72.383 -19.828 L 72.279 -19.887 L 72.116 -19.976 L 72.005 -20.043 L 71.841 -20.125 L 71.730 -20.177 L 71.559 -20.251 L 71.441 -20.296 L 71.270 -20.362 L 71.151 -20.407 L 70.980 -20.466 L 70.854 -20.503 L 70.684 -20.548 L 70.557 -20.585 L 70.379 -20.622 L 70.253 -20.644 L 70.075 -20.674 L 69.949 -20.696 L 69.771 -20.719 L 69.644 -20.734 L 69.459 -20.741 L 69.333 -20.748 L 69.154 -20.756 L 69.021 -20.756 L 68.843 -20.748 L 68.716 -20.741 L 68.531 -20.734 L 68.405 -20.719 L 68.227 -20.696 L 68.100 -20.674 L 67.922 -20.644 L 67.796 -20.622 L 67.618 -20.585 L 67.492 -20.548 L 67.321 -20.503 L 67.195 -20.466 L 67.024 -20.407 L 66.905 -20.362 L 66.735 -20.296 L 66.616 -20.251 L 66.445 -20.177 L 66.334 -20.125 L 66.171 -20.043 L 66.059 -19.976 L 65.896 -19.887 L 65.792 -19.828 L 65.636 -19.724 L 65.532 -19.657 L 65.384 -19.553 L 65.280 -19.479 L 65.131 -19.360 L 65.035 -19.286 L 64.901 -19.160 L 64.805 -19.078 L 64.671 -18.952 L 64.582 -18.863 L 64.456 -18.729 L 64.374 -18.633 L 64.248 -18.499 L 64.174 -18.403 L 64.055 -18.254 L 63.981 -18.150 L 63.877 -18.002 L 63.810 -17.898 L 63.706 -17.742 L 63.647 -17.638 L 63.558 -17.475 L 63.491 -17.364 L 63.409 -17.200 L 63.357 -17.089 L 63.283 -16.918 L 63.239 -16.799 L 63.172 -16.629 L 63.127 -16.510 L 63.068 -16.339 L 63.031 -16.213 L 62.986 -16.042 L 62.949 -15.916 L 62.912 -15.738 L 62.890 -15.612 L 62.860 -15.434 L 62.838 -15.308 L 62.815 -15.129 L 62.801 -15.003 L 62.793 -14.818 L 62.786 -14.691 L 62.778 -14.513 L 62.778 -14.380 L 62.786 -14.202 L 62.793 -14.075 L 62.801 -13.890 L 62.815 -13.764 L 62.838 -13.585 L 62.860 -13.459 L 62.890 -13.281 L 62.912 -13.155 L 62.949 -12.977 L 62.986 -12.851 L 63.031 -12.680 L 63.068 -12.554 L 63.127 -12.383 L 63.172 -12.264 L 63.239 -12.094 L 63.283 -11.975 L 63.357 -11.804 L 63.409 -11.693 L 63.491 -11.529 L 63.558 -11.418 L 63.647 -11.255 L 63.706 -11.151 L 63.810 -10.995 L 63.877 -10.891 L 63.981 -10.743 L 64.055 -10.639 L 64.174 -10.490 L 64.248 -10.394 L 64.374 -10.260 L 64.456 -10.164 L 64.582 -10.030 L 64.671 -9.941 L 64.805 -9.815 L 64.901 -9.733 L 65.035 -9.607 L 65.131 -9.533 L 65.280 -9.414 L 65.384 -9.340 L 65.532 -9.236 L 65.636 -9.169 L 65.792 -9.065 L 65.896 -9.006 L 66.059 -8.917 L 66.171 -8.850 L 66.334 -8.768 L 66.445 -8.716 L 66.616 -8.642 L 66.735 -8.597 L 66.905 -8.531 L 67.024 -8.486 L 67.195 -8.427 L 67.321 -8.390 L 67.492 -8.345 L 67.618 -8.308 L 67.796 -8.271 L 67.922 -8.249 L 68.100 -8.219 L 68.227 -8.197 L 68.405 -8.174 L 68.531 -8.159 L 68.716 -8.152 L 68.843 -8.145 L 69.021 -8.137 L 69.154 -8.137 L 69.333 -8.145 L 69.459 -8.152 L 69.644 -8.159 L 69.771 -8.174 L 69.949 -8.197 L 70.075 -8.219 L 70.253 -8.249 L 70.379 -8.271 L 70.557 -8.308 L 70.684 -8.345 L 70.854 -8.390 L 70.980 -8.427 L 71.151 -8.486 L 71.270 -8.531 L 71.441 -8.597 L 71.559 -8.642 L 71.730 -8.716 L 71.841 -8.768 L 72.005 -8.850 L 72.116 -8.917 L 72.279 -9.006 L 72.383 -9.065 L 72.539 -9.169 L 72.643 -9.236 L 72.792 -9.340 L 72.895 -9.414 L 73.044 -9.533 L 73.140 -9.607 L 73.274 -9.733 L 73.371 -9.815 L 73.504 -9.941 L 73.593 -10.030 L 73.719 -10.164 L 73.801 -10.260 L 73.927 -10.394 L 74.001 -10.490 L 74.120 -10.639 L 74.194 -10.743 L 74.298 -10.891 L 74.365 -10.995 L 74.469 -11.151 L 74.528 -11.255 L 74.618 -11.418 L 74.684 -11.529 L 74.766 -11.693 L 74.818 -11.804 L 74.892 -11.975 L 74.937 -12.094 L 75.004 -12.264 L 75.048 -12.383 L 75.107 -12.554 L 75.145 -12.680 L 75.189 -12.851 L 75.226 -12.977 L 75.263 -13.155 L 75.286 -13.281 L 75.315 -13.459 L 75.338 -13.585 L 75.360 -13.764 L 75.375 -13.890 L 75.382 -14.075 L 75.389 -14.202 L 75.397 -14.380 L 75.397 -14.513 L 75.389 -14.691 Z M 70.186 -14.283 L 70.179 -14.231 L 70.164 -14.179 L 70.149 -14.120 L 70.134 -14.075 L 70.112 -14.023 L 70.097 -13.971 L 70.067 -13.919 L 70.045 -13.875 L 70.015 -13.830 L 69.978 -13.786 L 69.949 -13.741 L 69.912 -13.697 L 69.874 -13.660 L 69.837 -13.623 L 69.793 -13.585 L 69.748 -13.556 L 69.704 -13.519 L 69.659 -13.489 L 69.615 -13.467 L 69.563 -13.437 L 69.511 -13.422 L 69.459 -13.400 L 69.414 -13.385 L 69.355 -13.370 L 69.303 -13.355 L 69.251 -13.348 L 69.199 -13.341 L 69.140 -13.333 L 69.088 -13.333 L 69.036 -13.333 L 68.976 -13.341 L 68.924 -13.348 L 68.872 -13.355 L 68.820 -13.370 L 68.761 -13.385 L 68.716 -13.400 L 68.665 -13.422 L 68.613 -13.437 L 68.561 -13.467 L 68.516 -13.489 L 68.472 -13.519 L 68.427 -13.556 L 68.382 -13.585 L 68.338 -13.623 L 68.301 -13.660 L 68.264 -13.697 L 68.227 -13.741 L 68.197 -13.786 L 68.160 -13.830 L 68.130 -13.875 L 68.108 -13.919 L 68.078 -13.971 L 68.063 -14.023 L 68.041 -14.075 L 68.026 -14.120 L 68.011 -14.179 L 67.996 -14.231 L 67.989 -14.283 L 67.982 -14.335 L 67.974 -14.395 L 67.974 -14.446 L 67.974 -14.498 L 67.982 -14.558 L 67.989 -14.610 L 67.996 -14.662 L 68.011 -14.714 L 68.026 -14.773 L 68.041 -14.818 L 68.063 -14.870 L 68.078 -14.922 L 68.108 -14.974 L 68.130 -15.018 L 68.160 -15.063 L 68.197 -15.107 L 68.227 -15.152 L 68.264 -15.196 L 68.301 -15.233 L 68.338 -15.270 L 68.382 -15.308 L 68.427 -15.337 L 68.472 -15.374 L 68.516 -15.404 L 68.561 -15.426 L 68.613 -15.456 L 68.665 -15.471 L 68.716 -15.493 L 68.761 -15.508 L 68.820 -15.523 L 68.872 -15.538 L 68.924 -15.545 L 68.976 -15.552 L 69.036 -15.560 L 69.088 -15.560 L 69.140 -15.560 L 69.199 -15.552 L 69.251 -15.545 L 69.303 -15.538 L 69.355 -15.523 L 69.414 -15.508 L 69.459 -15.493 L 69.511 -15.471 L 69.563 -15.456 L 69.615 -15.426 L 69.659 -15.404 L 69.704 -15.374 L 69.748 -15.337 L 69.793 -15.308 L 69.837 -15.270 L 69.874 -15.233 L 69.912 -15.196 L 69.949 -15.152 L 69.978 -15.107 L 70.015 -15.063 L 70.045 -15.018 L 70.067 -14.974 L 70.097 -14.922 L 70.112 -14.870 L 70.134 -14.818 L 70.149 -14.773 L 70.164 -14.714 L 70.179 -14.662 L 70.186 -14.610 L 70.194 -14.558 L 70.201 -14.498 L 70.201 -14.446 L 70.201 -14.395 L 70.194 -14.335 Z"/>
  </g>
 </g>
</svg>
